/* XPM */
static char * dmm_xpm[] = {
"32 32 14 1",
" 	c None",
".	c #000000",
"+	c #7F7F7F",
"@	c #595959",
"#	c #3A3A3A",
"$	c #C0D8C1",
"%	c #FF0000",
"&	c #FFFFFF",
"*	c #969696",
"=	c #FFEE00",
"-	c #0019FF",
";	c #C4C4C4",
">	c #0022FF",
",	c #141414",
"                                ",
"      .....................     ",
"     .+++++++++++++++++++++.    ",
"    .+@@@@@@@@@@@@@@@@@@@@@#.   ",
"    .+@...................@#.   ",
"    .+@.$$$$$$$$$$$$$$$$$.@#.   ",
"    .+@.$...$$$.$.$...$.$.@#.   ",
"    .+@.$$$.$$$.$.$$$.$.$.@#.   ",
"    .+@.$...$$$...$...$.$.@#.   ",
"    .+@.$$$.$$$$$.$.$$$.$.@#.   ",
"    .+@.$...$.$$$.$...$.$.@#.   ",
"    .+@.$$$$$$$$$$$$$$$$$.@#.   ",
"    .+@.$.$.$.$.$$$$$$$$$.@#.   ",
"    .+@.$.$.$.$.$$$$$$$$$.@#.   ",
"    .+@.$$$$$$$$$$$$$$$$$.@#.   ",
"    .+@...................@#.   ",
"    .+@@@@@@@@@@@@@@@@@@@@@#.   ",
"    .+@%%@@@@@@@@@@@@@@@@@@@.   ",
"    .+%&%%@@@@@@@..........#.   ",
"    .+%&&%@@@@...**********#.   ",
"    .+@%%@@...******=***--*#.   ",
"    .@@@@..********===*----#.   ",
"    .+...*****;;**;****----#.   ",
"    .+*****;**********;*--*#.   ",
"    .+=******===;;;;**;****#.   ",
"    .+=*;**;;===;;;;;;*****#.   ",
"    .+=;**;;;.......;;>**;*#.   ",
"    .+=**;;;.........>>>*;*#.   ",
"    .+=**;;.&.#####...>>***#.   ",
"    .+=*%%..#&,#####...>>**#.   ",
"    .+=*%%..#,,,#####..>>**#.   ",
"    #########################   "};
