/* XPM */
static char * execute_xpm[] = {
"32 32 9 1",
" 	c None",
".	c #050505",
"+	c #404040",
"@	c #707070",
"#	c #8C8C8C",
"$	c #D9D9D9",
"%	c #9A9A9A",
"&	c #B9B9B9",
"*	c #F8F8F8",
"                   ..           ",
"               .. .+%....       ",
"              ..%.++$@@@$.      ",
"           .. ++++@+@@+$%..     ",
"          .+++++@+@@+@@&.@#.    ",
"          .++@++++@@@@@@#@$%.   ",
"        ..++++@%&%@@@#@#@$&#+   ",
"       .+@++@&$&%%&%@##@&&+.    ",
"       .+++#$&@++.++%%%#%%#@.   ",
"     ..+@+%*#++....+%#%%%%&$&.  ",
"    .@@+@#$@+...  ..%%%&%%&$&+  ",
"    .@@+@$#@..     .%&%%&$&#@.  ",
"     .@@&&+..      .%%&&&&@..   ",
"   ..@@@$@+.      .&&&&&$@.     ",
"  .%@#@%&+.       .&%&&&&$.     ",
"  .%@@#&%..      .&&&&&$&$*.    ",
"   +###&#.      .&&&&$&$$*$@.   ",
"   .###&@.     .&&&$&$$&%%&@.   ",
"  +#%%%&#+.  ..&&$&$$$%@....    ",
" .#&%%&%&#+..&&$&$&$$*%.        ",
" .&&%%&%&&&&&$&$&$$$$*$.        ",
"  .@&&&&&&&&$&$$$$*$***@.       ",
"  .&&&&&&$&$$$$$$$&%**$%.       ",
" .&&$&&$&&$&$$$$$$@++&&@.       ",
"  .$@%$$$$$$$**$*&+...++.       ",
"   ..&$$&$$*$#***&+.  ..        ",
"   .&*$%@$*$%++**&.             ",
"    .$&@.**&@..*&%.             ",
"     .#..**&+. .@+.             ",
"      .  .%#+.  ..              ",
"         .#..                   ",
"          ..                    "};
