/* XPM */
static const char * all_digits_xpm[] = {
"38 64 2 1",
" 	c None",
".	c #000000",
"                                      ",
"                                      ",
"      ...................... ...      ",
"    ........................ .....    ",
"    ........................ ......   ",
"   . ....................... ......   ",
"  ... ..................... ........  ",
"  .... .................... ........  ",
"  ..... ................... ........  ",
"  ...... .................. ........  ",
"  .......                   ........  ",
"  ........                  ........  ",
"  ........                  ........  ",
"  ........                  ........  ",
"  ........                  ........  ",
"  ........                  ........  ",
"  ........                  ........  ",
"  ........                  ........  ",
"  ........                  ........  ",
"  ........                  ........  ",
"  ........                  ........  ",
"  ........                  ........  ",
"  ........                  ........  ",
"  ........                  ........  ",
"  ........                  ........  ",
"  ........                  ........  ",
"  ........                  ........  ",
"  ........                  ........  ",
"  ....... .................. .......  ",
"  ...... .................... ......  ",
"  ..... ...................... .....  ",
"  .... ........................ ....  ",
"      ..........................      ",
"  .... ........................ ....  ",
"  ..... ...................... .....  ",
"  ...... .................... ......  ",
"  ....... .................. .......  ",
"  ........                  ........  ",
"  ........                  ........  ",
"  ........                  ........  ",
"  ........                  ........  ",
"  ........                  ........  ",
"  ........                  ........  ",
"  ........                  ........  ",
"  ........                  ........  ",
"  ........                  ........  ",
"  ........                  ........  ",
"  ........                  ........  ",
"  ........                  ........  ",
"  ........                  ........  ",
"  ........                  ........  ",
"  ........                  ........  ",
"  ........                  ........  ",
"  ........                  ........  ",
"  ........ ................ ........  ",
"  ....... ................. ........  ",
"  ...... ................... .......  ",
"  ..... .................... .......  ",
"   ... ...................... .....   ",
"   .. ....................... .....   ",
"     ......................... ...    ",
"      ........................ .      ",
"                                      ",
"                                      "};
