/* XPM */
static const char * clear_xpm[] = {
"22 22 108 2",
"  	g None",
". 	g #000000",
"+ 	g #494949",
"@ 	g #505050",
"# 	g #383838",
"$ 	g #818181",
"% 	g #101010",
"& 	g #282828",
"* 	g #2B2B2B",
"= 	g #212121",
"- 	g #DCDCDC",
"; 	g #F7F7F7",
"> 	g #DEDEDE",
", 	g #696969",
"' 	g #6D6D6D",
") 	g #717171",
"! 	g #3C3C3C",
"~ 	g #9A9A9A",
"{ 	g #B2B2B2",
"] 	g #989898",
"^ 	g #0F0F0F",
"/ 	g #939393",
"( 	g #EBEBEB",
"_ 	g #F6F6F6",
": 	g #FBFBFB",
"< 	g #D9D9D9",
"[ 	g #BABABA",
"} 	g #BCBCBC",
"| 	g #585858",
"1 	g #151515",
"2 	g #8C8C8C",
"3 	g #C0C0C0",
"4 	g #B3B3B3",
"5 	g #929292",
"6 	g #7D7D7D",
"7 	g #232323",
"8 	g #909090",
"9 	g #B4B4B4",
"0 	g #B8B8B8",
"a 	g #DADADA",
"b 	g #E4E4E4",
"c 	g #F2F2F2",
"d 	g #E8E8E8",
"e 	g #E0E0E0",
"f 	g #7B7B7B",
"g 	g #858585",
"h 	g #8F8F8F",
"i 	g #777777",
"j 	g #4D4D4D",
"k 	g #D7D7D7",
"l 	g #AFAFAF",
"m 	g #A8A8A8",
"n 	g #9C9C9C",
"o 	g #747474",
"p 	g #787878",
"q 	g #707070",
"r 	g #444444",
"s 	g #6C6C6C",
"t 	g #8A8A8A",
"u 	g #C2C2C2",
"v 	g #CDCDCD",
"w 	g #D8D8D8",
"x 	g #A0A0A0",
"y 	g #949494",
"z 	g #6E6E6E",
"A 	g #616161",
"B 	g #272727",
"C 	g #080808",
"D 	g #9F9F9F",
"E 	g #C3C3C3",
"F 	g #8B8B8B",
"G 	g #757575",
"H 	g #4F4F4F",
"I 	g #373737",
"J 	g #131313",
"K 	g #BEBEBE",
"L 	g #CCCCCC",
"M 	g #BBBBBB",
"N 	g #4C4C4C",
"O 	g #2C2C2C",
"P 	g #999999",
"Q 	g #ABABAB",
"R 	g #C5C5C5",
"S 	g #919191",
"T 	g #E9E9E9",
"U 	g #8E8E8E",
"V 	g #A4A4A4",
"W 	g #C6C6C6",
"X 	g #6F6F6F",
"Y 	g #8D8D8D",
"Z 	g #323232",
"` 	g #A5A5A5",
" .	g #CBCBCB",
"..	g #5D5D5D",
"+.	g #E7E7E7",
"@.	g #F9F9F9",
"#.	g #565656",
"$.	g #202020",
"%.	g #020202",
"&.	g #1B1B1B",
"*.	g #D1D1D1",
"=.	g #B7B7B7",
"-.	g #838383",
";.	g #303030",
">.	g #363636",
",.	g #3B3B3B",
"'.	g #242424",
").	g #191919",
"                                            ",
"                . . . .                     ",
"          . . . + @ # $ % & * =             ",
"      . . - ; > , # ' ) ! ~ { ] . .         ",
"    ^ / ( _ : < [ { } | 1 2 3 4 5 6 .       ",
"    7 8 9 0 a b c d e f g h 2 i | j .       ",
"    1 i - k l l m n n o o ) p q j r .       ",
"      . s t u v w x x x x y z A B C         ",
"      . D E s s t F t s s z G H I J         ",
"      . t K b L 9 M ] 2 2 2 z N O J         ",
"      . t K ( P Q R t S 5 z z N O J         ",
"      . t K T U V W p t 2 N X N O J         ",
"      . t K T U V R p t 2 N z N O J         ",
"      . t K T U V R p t 2 N z N O J         ",
"      . t K T U V W p t 2 N z N O J         ",
"      . t K T U V W p t 2 N z N O J         ",
"      . t K T U V W p t 2 N z N O J         ",
"      . Y K T U V R p t 2 N z H Z J         ",
"      . `  .T U V W p t 2 N X ..O ^         ",
"      . } +.@.[ K W t ~ 2 ' ' #.$.%.        ",
"        &.. V  .*.=.x x -.#.I ;..           ",
"            . >.,.Z Z Z '.)..               "};
