/* XPM */
static const char * connect_off_xpm[] = {
"22 22 18 1",
" 	c None",
".	c #FFFF00",
"+	c #C0C000",
"@	c #404000",
"#	c #000000",
"$	c #FFFFFF",
"%	c #C5C2C5",
"&	c #000400",
"*	c #DEDEDE",
"=	c #EEEAEE",
"-	c #E6E6E6",
";	c #BDBABD",
">	c #E6E2E6",
",	c #838183",
"'	c #DEDADE",
")	c #5A595A",
"!	c #A4A1A4",
"~	c #080808",
"                      ",
"                      ",
"                      ",
"                      ",
"                      ",
"                      ",
"           .+         ",
"          .+@         ",
"      ## .+@          ",
"     #$%&+@    .      ",
"    &$*=%&    .+@     ",
"   &$***-%#  .+@      ",
"   &;****>%#.+@       ",
"   #,;****'%#@        ",
"   #),;*****%#        ",
"    )%,;***%,&        ",
"    #$!,;*%,)#        ",
"   #$!,),,,)#         ",
"  #$!~##),)#          ",
" #$!#   ###           ",
"#$!#                  ",
"$!#                   "};
