/* XPM */
static const char * connection_xpm[] = {
"32 32 67 1",
" 	c None",
".	c #FDFD00",
"+	c #D2D200",
"@	c #FFFF00",
"#	c #E2E200",
"$	c #A3A300",
"%	c #E4E400",
"&	c #464600",
"*	c #000000",
"=	c #FFFFFF",
"-	c #C4C1C4",
";	c #00000D",
">	c #E5E500",
",	c #DEDEDE",
"'	c #000001",
")	c #DCDCDC",
"!	c #DDDDDD",
"~	c #838183",
"{	c #BDBBC0",
"]	c #DFDFDF",
"^	c #DEDFDE",
"/	c #E4E2E4",
"(	c #111100",
"_	c #5A595A",
":	c #E1E1E1",
"<	c #E0E0E0",
"[	c #E6E3E6",
"}	c #E0DDE0",
"|	c #DCDCDD",
"1	c #B1AFB1",
"2	c #626162",
"3	c #5B5A5B",
"4	c #8B898B",
"5	c #E0E1E0",
"6	c #DDDCDD",
"7	c #010101",
"8	c #807D80",
"9	c #DDDBDD",
"0	c #696969",
"a	c #DFDEDF",
"b	c #A9A6A9",
"c	c #817F81",
"d	c #BFBDBF",
"e	c #C8C6C8",
"f	c #A5A2A5",
"g	c #CAC8CA",
"h	c #636263",
"i	c #9B989B",
"j	c #868486",
"k	c #080808",
"l	c #0A0A0A",
"m	c #6A676A",
"n	c #444444",
"o	c #686768",
"p	c #5D5C5D",
"q	c #D5D3D5",
"r	c #040404",
"s	c #050505",
"t	c #CECBCE",
"u	c #0C0B0C",
"v	c #0E0E0E",
"w	c #0B0A0B",
"x	c #DBDADB",
"y	c #141314",
"z	c #060606",
"A	c #D9D7D9",
"B	c #070607",
"                                ",
"                                ",
"                                ",
"                                ",
"                                ",
"                                ",
"                                ",
"                                ",
"                  .+            ",
"                 @#$            ",
"                @%$&            ",
"           **  @%$&             ",
"          *=-;@>$&              ",
"         *=,,-*$&      .#       ",
"        *=,,,,-*      @#$       ",
"       *=,,,,,,-'    @#$&       ",
"      *=,))!,,,,-'  @#$&        ",
"      *~{]],,^/,,-(@#$&         ",
"      *_~{!:,!</[,-*$&          ",
"      *__~{,],,,},,-*           ",
"      *___~{<],,,,|,1*          ",
"       *_234{,:,56,1~*          ",
"        7890~{a:6,bc~*          ",
"        *d=e_~{,,f~~_*          ",
"       *d=gbh3~{ij~_k           ",
"      ld=9mnop__~~_*            ",
"     *d=qmrs7___~_*             ",
"    *d=tmu   v___w              ",
"   rd=xmy     ***               ",
"  zd=Am*                        ",
" *d=dmB                         ",
"                                "};
