/* XPM */
static const char * connect_on_xpm[] = {
"22 22 16 1",
" 	c None",
".	c #000000",
"+	c #FFFFFF",
"@	c #A4A1A4",
"#	c #DEDEDE",
"$	c #C5C2C5",
"%	c #DCDCDC",
"&	c #000400",
"*	c #EEEAEE",
"=	c #E6E6E6",
"-	c #838183",
";	c #BDBABD",
">	c #E6E2E6",
",	c #5A595A",
"'	c #DEDADE",
")	c #080808",
"                      ",
"                   .+@",
"                  .+@.",
"                 .+@. ",
"          ...   .+@.  ",
"         .+++. .#@.   ",
"        .+###+.$@.    ",
"       .@##%##+..     ",
"      ...@#####+.     ",
"     .+$&.@#####+.    ",
"    &+#*$&.@####$.    ",
"   &+###=$..@##$-.    ",
"   &;####>$..@;-,.    ",
"   .-;####'$..-,.     ",
"   .,-;#####$.,.      ",
"    ,$-;###$-&.       ",
"    .+@-;#$-,.        ",
"   .+@-,---,.         ",
"  .+@)..,-,.          ",
" .+@.   ...           ",
".+@.                  ",
"+@.                   "};
