/* XPM */
static const char * connect_icon_xpm[] = {
"32 32 188 2",
"  	c None",
". 	c #FFFF00",
"+ 	c #FCFC00",
"@ 	c #EFEF00",
"# 	c #979700",
"$ 	c #F1F100",
"% 	c #A8A800",
"& 	c #343400",
"* 	c #000000",
"= 	c #F2F200",
"- 	c #8E8E00",
"; 	c #434300",
"> 	c #5C5C5C",
", 	c #616160",
"' 	c #484748",
") 	c #AAAD00",
"! 	c #939300",
"~ 	c #585800",
"{ 	c #DADBDA",
"] 	c #FFFFFF",
"^ 	c #E5E1E4",
"/ 	c #02051F",
"( 	c #353900",
"_ 	c #CAC900",
": 	c #454500",
"< 	c #1C201C",
"[ 	c #FDFDFD",
"} 	c #F7F6F7",
"| 	c #F1F0F1",
"1 	c #F9F4F8",
"2 	c #CCC8D3",
"3 	c #51504C",
"4 	c #F8F800",
"5 	c #B0B000",
"6 	c #333300",
"7 	c #595E59",
"8 	c #A5A7A5",
"9 	c #EBEBEB",
"0 	c #DBDADB",
"a 	c #EDEBED",
"b 	c #FFFDFF",
"c 	c #AAAAB3",
"d 	c #3C3E52",
"e 	c #FBFB00",
"f 	c #A0A000",
"g 	c #646400",
"h 	c #BFC1BF",
"i 	c #DADADA",
"j 	c #D9D9D9",
"k 	c #DBDCDB",
"l 	c #EAECEA",
"m 	c #FDFCFC",
"n 	c #DAD6D9",
"o 	c #1C1C1A",
"p 	c #F7F700",
"q 	c #B6B600",
"r 	c #555500",
"s 	c #1F1F00",
"t 	c #7F7E7F",
"u 	c #EFEBEF",
"v 	c #E1E2E1",
"w 	c #E0E1E0",
"x 	c #DEDEDE",
"y 	c #DEDDDE",
"z 	c #DDDEDD",
"A 	c #E7E4E7",
"B 	c #EFEAEF",
"C 	c #DCD9DB",
"D 	c #383751",
"E 	c #FFFF01",
"F 	c #3E3E00",
"G 	c #5E5D5E",
"H 	c #BFBCBF",
"I 	c #D3D1D3",
"J 	c #E4E4E4",
"K 	c #DCDCDC",
"L 	c #E7E5E7",
"M 	c #F7F3F5",
"N 	c #A6A1B1",
"O 	c #53514F",
"P 	c #5B5B00",
"Q 	c #6D6D00",
"R 	c #7B7B01",
"S 	c #454445",
"T 	c #949294",
"U 	c #AEABAE",
"V 	c #D3D3D3",
"W 	c #E2E3E2",
"X 	c #E0E0E0",
"Y 	c #E3DFE3",
"Z 	c #F9F5F8",
"` 	c #CAC8D4",
" .	c #000027",
"..	c #292900",
"+.	c #323132",
"@.	c #676667",
"#.	c #787678",
"$.	c #ACA9AC",
"%.	c #D4D2D4",
"&.	c #E6E7E6",
"*.	c #E3E4E3",
"=.	c #ECEDEC",
"-.	c #F0ECF0",
";.	c #4E4D4F",
">.	c #515051",
",.	c #787578",
"'.	c #B1AFB1",
").	c #8D8A8D",
"!.	c #9E9B9E",
"~.	c #D5D2D5",
"{.	c #E2E4E2",
"].	c #E2E1E2",
"^.	c #D5D3D5",
"/.	c #C3C1C3",
"(.	c #353738",
"_.	c #272827",
":.	c #5C5B5C",
"<.	c #FDFBFD",
"[.	c #9B979B",
"}.	c #817E81",
"|.	c #B0ACB0",
"1.	c #D3D2D3",
"2.	c #E4E3E4",
"3.	c #CDCBCD",
"4.	c #ABA7AB",
"5.	c #888688",
"6.	c #222422",
"7.	c #1F211F",
"8.	c #D2D1D2",
"9.	c #8B898B",
"0.	c #7B797B",
"a.	c #B1ADB1",
"b.	c #DAD9DA",
"c.	c #EBECEB",
"d.	c #D6D3D6",
"e.	c #A6A3A6",
"f.	c #787778",
"g.	c #6A696A",
"h.	c #1F1F1F",
"i.	c #878887",
"j.	c #EAE9EA",
"k.	c #DCDADC",
"l.	c #B3B0B3",
"m.	c #878587",
"n.	c #656465",
"o.	c #8D8B8D",
"p.	c #9A989A",
"q.	c #989798",
"r.	c #9C999C",
"s.	c #5D5C5D",
"t.	c #121212",
"u.	c #020302",
"v.	c #434343",
"w.	c #575557",
"x.	c #434243",
"y.	c #2D2C2D",
"z.	c #696769",
"A.	c #828082",
"B.	c #827F82",
"C.	c #7D7B7D",
"D.	c #555455",
"E.	c #292929",
"F.	c #212121",
"G.	c #F5F3F5",
"H.	c #6E6A6E",
"I.	c #464746",
"J.	c #7E7D7E",
"K.	c #929092",
"L.	c #6E6D6E",
"M.	c #202120",
"N.	c #7C7C7C",
"O.	c #EBE7EB",
"P.	c #454345",
"Q.	c #090909",
"R.	c #090A09",
"S.	c #0F0E0F",
"T.	c #070607",
"U.	c #595A59",
"V.	c #D6D5D6",
"W.	c #FEFDFE",
"X.	c #545154",
"Y.	c #060506",
"Z.	c #060606",
"`.	c #161616",
" +	c #FCFAFC",
".+	c #6C686C",
"++	c #BFBDBF",
"@+	c #535253",
"                                                                ",
"                                                                ",
"                                                                ",
"                                                                ",
"                                                                ",
"                                                                ",
"                                                                ",
"                                                                ",
"                                                                ",
"                                  . +                           ",
"                                . @ #                           ",
"                              . $ % &                           ",
"                  * * *     . = - ;                             ",
"                  > , ' * ) . ! ~                               ",
"                * { ] ^ / ( _ :             . .                 ",
"            * < [ } | 1 2 3 *             . 4 5 6               ",
"            7 8 ] 9 0 a b c d *         . e f g ;               ",
"          * h ] i j k k l m n o *     . p q r s                 ",
"          * t u v w x y z A B C D * . E 5 F                     ",
"          * G H I v J x K w L M N O P Q R                       ",
"          * S T U V W X x x z Y Z `  .* ..                      ",
"          * +.@.#.$.%.&.X x x z *.=.-.;.*                       ",
"            >.,.'.).!.~.W *.x {.].^./.(.*                       ",
"            _.:.<.[.}.|.1.2.J ].3.4.5.6.*                       ",
"            * 7.] 8.9.0.a.b.c.d.e.f.g.h.*                       ",
"          * i.j.k.l.m.n.o.p.q.r.9.s.t.u.                        ",
"        * v.x ] w.>.x.y.z.A.B.C.D.E.*                           ",
"      * F.] G.H.* * * * I.J.K.L.M.*                             ",
"    * N.] O.P.*         Q.R.S.Q.T.                              ",
"  * U.V.W.X.Y.            * * *                                 ",
"Z.`.]  +.+*                                                     ",
"{ V.++@+T.                                                      "};
