/* XPM */
static const char * DBM_small_xpm[] = {
"9 8 2 1",
" 	c None",
".	c #000000",
"   . ... ",
"   . .  .",
"   . .  .",
"   . .  .",
" ... ... ",
".  . .  .",
".  . .  .",
" ... ... "};
