/* XPM */
static const char * decimal_small_xpm[] = {
"4 21 2 1",
" 	c None",
".	c #000000",
"    ",
"    ",
"    ",
"    ",
"    ",
"    ",
"    ",
"    ",
"    ",
"    ",
"    ",
"    ",
"    ",
"    ",
"    ",
"    ",
"    ",
"    ",
" .. ",
" .. ",
" .. "};
