/* XPM */
static const char * display_xpm[] = {
"32 32 4 1",
" 	c None",
".	c #00B506",
"+	c #0035F4",
"@	c #000000",
"                                ",
"                                ",
"                                ",
"                                ",
"                                ",
"                                ",
"                ..........      ",
" +          +    ........@.     ",
" ++        ++@    ......@..@    ",
" +++      +++@     @@@@@...@    ",
" +++@     +++@          ...@    ",
" +++@     +++@          ...@    ",
" +++@     +++@          ...@    ",
" +++@     +++@          ...@    ",
" +++@     +++@          ...@    ",
" ++@++++++ ++@    ...... ..@    ",
"  @++++++++ @@   ........ @@    ",
"    ++++++@++  .. ......@@      ",
"     @@@@@+++@ ... @@@@@@       ",
"          +++@ ...@             ",
"          +++@ ...@             ",
"          +++@ ...@             ",
"          +++@ ...@             ",
"          +++@ ...@             ",
"           ++@ ..@......        ",
"            +@ .@........       ",
"             @  ..........      ",
"                 @@@@@@@@@@     ",
"                                ",
"                                ",
"                                ",
"                                "};
