/* XPM */
static const char * fourty_bar_xpm[] = {
"9 7 2 1",
" 	c None",
".	c #000000",
".     .. ",
".    .  .",
". .  .  .",
". .  .  .",
".... .  .",
"  .  .  .",
"  .   .. "};
