/* XPM */
static const char * G_small_xpm[] = {
"5 8 2 1",
" 	c None",
".	c #000000",
" ... ",
".   .",
".    ",
".    ",
". ...",
".   .",
".   .",
" ...."};
