/* XPM */
static const char * gui_xpm[] = {
"32 32 303 2",
"  	c None",
". 	c #272727",
"+ 	c #111111",
"@ 	c #010101",
"# 	c #1F1F1F",
"$ 	c #383838",
"% 	c #F7F5EF",
"& 	c #F0EEE4",
"* 	c #EEEBDF",
"= 	c #000000",
"- 	c #494949",
"; 	c #F7F5F0",
"> 	c #F1EEE4",
", 	c #EFEBE0",
"' 	c #EFECE1",
") 	c #F0EDE2",
"! 	c #020202",
"~ 	c #525252",
"{ 	c #F6F4EE",
"] 	c #EEEADE",
"^ 	c #F1EFE5",
"/ 	c #F2EFE6",
"( 	c #1B1B1B",
"_ 	c #E4DFCC",
": 	c #D8D0B4",
"< 	c #D6CEB0",
"[ 	c #D4CBAC",
"} 	c #252525",
"| 	c #EDE9DC",
"1 	c #F0EDE3",
"2 	c #F3F1E9",
"3 	c #F4F2EA",
"4 	c #101010",
"5 	c #E5E0CE",
"6 	c #DBD3B9",
"7 	c #D9D1B5",
"8 	c #D6CEB1",
"9 	c #D4CCAD",
"0 	c #D1C8A8",
"a 	c #BEB596",
"b 	c #323232",
"c 	c #ECE9DC",
"d 	c #EDEADD",
"e 	c #E9E6DB",
"f 	c #CFC5A2",
"g 	c #F5F3EC",
"h 	c #050505",
"i 	c #E7E3D2",
"j 	c #DDD6BD",
"k 	c #DBD4BA",
"l 	c #D9D1B6",
"m 	c #D7CEB1",
"n 	c #D5CCAD",
"o 	c #D3CAAA",
"p 	c #D0C7A5",
"q 	c #0E0E0E",
"r 	c #F4F2EB",
"s 	c #EBE8DA",
"t 	c #EBE7DB",
"u 	c #1E1E1E",
"v 	c #DFD9C2",
"w 	c #DDD6BE",
"x 	c #D5CCAE",
"y 	c #BFB695",
"z 	c #EAE6D6",
"A 	c #EBE7D9",
"B 	c #EAE5D7",
"C 	c #117BB3",
"D 	c #D2C9AD",
"E 	c #040404",
"F 	c #F2F0E8",
"G 	c #E9E4D5",
"H 	c #E1DCC6",
"I 	c #DFD8C1",
"J 	c #60B7D8",
"K 	c #ACE9F8",
"L 	c #79D0F4",
"M 	c #1286BE",
"N 	c #0A7DB4",
"O 	c #CDC5A5",
"P 	c #CFC6A4",
"Q 	c #E7E3D4",
"R 	c #E8E3D3",
"S 	c #EAE6D7",
"T 	c #ECE8DA",
"U 	c #212121",
"V 	c #E9E5D6",
"W 	c #E0DAC4",
"X 	c #AAE1F5",
"Y 	c #DBF1FA",
"Z 	c #A7E0F3",
"` 	c #3AACDA",
" .	c #006798",
"..	c #C7BE9D",
"+.	c #CEC4A1",
"@.	c #E9E5D5",
"#.	c #EBE7D8",
"$.	c #F0ECE2",
"%.	c #ECE8DB",
"&.	c #030303",
"*.	c #EBE6D8",
"=.	c #E2DBC7",
"-.	c #E0D9C3",
";.	c #75C9EC",
">.	c #9ADCF3",
",.	c #66C1E7",
"'.	c #57B6E1",
").	c #B9B091",
"!.	c #CAC19E",
"~.	c #C8BE9C",
"{.	c #E6E1CF",
"].	c #E8E3D2",
"^.	c #060606",
"/.	c #ECE9DB",
"(.	c #E3DDC9",
"_.	c #E1DBC5",
":.	c #34A3DA",
"<.	c #49B5E2",
"[.	c #2EA3D8",
"}.	c #2C98CB",
"|.	c #00517E",
"1.	c #B5AC8E",
"2.	c #CAC09E",
"3.	c #E3DECA",
"4.	c #E5E0CD",
"5.	c #E6E1D0",
"6.	c #0B0B0B",
"7.	c #F1EFE9",
"8.	c #E2DBC6",
"9.	c #DED7BF",
"0.	c #D7D0B8",
"a.	c #004164",
"b.	c #B0A789",
"c.	c #E2DCC7",
"d.	c #E7E3D3",
"e.	c #F1EFEA",
"f.	c #070707",
"g.	c #F1F0EA",
"h.	c #DAD3B9",
"i.	c #D0C8AE",
"j.	c #004266",
"k.	c #867F69",
"l.	c #B6AD8E",
"m.	c #C2B897",
"n.	c #E8E4D4",
"o.	c #E7E4D3",
"p.	c #E7E2D1",
"q.	c #DCD4BB",
"r.	c #DAD3B8",
"s.	c #D7CFB3",
"t.	c #CDC5AA",
"u.	c #BDB59A",
"v.	c #B3AB90",
"w.	c #B1A98D",
"x.	c #B2AA8D",
"y.	c #C6BD9B",
"z.	c #E4DECA",
"A.	c #DCD5BC",
"B.	c #169291",
"C.	c #2CB2B4",
"D.	c #2CAFB1",
"E.	c #C8BFA0",
"F.	c #CAC09F",
"G.	c #A49C80",
"H.	c #E2DCC8",
"I.	c #E5B6A8",
"J.	c #BA6967",
"K.	c #E3484A",
"L.	c #C91932",
"M.	c #DED8C5",
"N.	c #E1DBC7",
"O.	c #24ADAC",
"P.	c #7FD8D3",
"Q.	c #3EC2C2",
"R.	c #C6BD9C",
"S.	c #D0C9B1",
"T.	c #FF9D9D",
"U.	c #FF9E9C",
"V.	c #FC8081",
"W.	c #FA5F5C",
"X.	c #D8D2BD",
"Y.	c #DFD8C2",
"Z.	c #D8D0B3",
"`.	c #2DB3B5",
" +	c #9BDCD9",
".+	c #DBF0EF",
"++	c #A7E2DC",
"@+	c #5BCBC0",
"#+	c #C1B897",
"$+	c #C3BDA6",
"%+	c #FFB9B9",
"&+	c #FCD1D0",
"*+	c #FBC4C4",
"=+	c #F07373",
"-+	c #A81429",
";+	c #C6C1AB",
">+	c #D9D2BB",
",+	c #93B487",
"'+	c #32924A",
")+	c #D7CEB2",
"!+	c #99DCD7",
"~+	c #B8E4E1",
"{+	c #136B6C",
"]+	c #B8AF90",
"^+	c #A69D81",
"/+	c #FB8D8D",
"(+	c #FABBBB",
"_+	c #FBA4A4",
":+	c #E73E4A",
"<+	c #A21428",
"[+	c #C1BBA5",
"}+	c #D6CFB6",
"|+	c #B5E3B0",
"1+	c #288D3E",
"2+	c #81C57A",
"3+	c #3CA84B",
"4+	c #77D1C9",
"5+	c #59C9C2",
"6+	c #0F5657",
"7+	c #B5AC8D",
"8+	c #CEC7AC",
"9+	c #DAD2B7",
"0+	c #FF5E5F",
"a+	c #F38686",
"b+	c #FC454D",
"c+	c #C21E28",
"d+	c #8B1122",
"e+	c #BAB49C",
"f+	c #D4CDB2",
"g+	c #E4EFE6",
"h+	c #F6FBF8",
"i+	c #A6DCA1",
"j+	c #6DC16D",
"k+	c #CBC2A4",
"l+	c #177C7D",
"m+	c #0B4748",
"n+	c #A39B7F",
"o+	c #6F0C1A",
"p+	c #B9B29A",
"q+	c #D2CBAE",
"r+	c #43994B",
"s+	c #BAEEC9",
"t+	c #29783C",
"u+	c #BAB295",
"v+	c #C7BF9D",
"w+	c #0B4647",
"x+	c #908970",
"y+	c #B7AE8F",
"z+	c #C5BEA2",
"A+	c #D3CAAC",
"B+	c #D1C9AC",
"C+	c #9D9782",
"D+	c #BEB79C",
"E+	c #D1C8AB",
"F+	c #4EB157",
"G+	c #236633",
"H+	c #B6AD90",
"I+	c #C9BF9D",
"J+	c #A1997D",
"K+	c #A69E81",
"L+	c #A49C81",
"M+	c #A1997E",
"N+	c #C7BFA1",
"O+	c #D3CAAB",
"P+	c #CCC4A6",
"Q+	c #AE8B7E",
"R+	c #A68578",
"S+	c #B2AB90",
"T+	c #B6AF94",
"U+	c #CCC3A5",
"V+	c #184723",
"W+	c #AFA688",
"X+	c #C6BC9A",
"Y+	c #C6BC9B",
"Z+	c #C3BB9C",
"`+	c #D0C7A7",
" @	c #CEC6A6",
".@	c #CEC5A6",
"+@	c #D1C8A7",
"@@	c #D2C8A7",
"#@	c #CCC4A3",
"$@	c #ABA486",
"%@	c #9B9479",
"&@	c #B8B092",
"*@	c #D0C6A4",
"=@	c #CEC4A2",
"-@	c #C7BE9C",
";@	c #1F5D2E",
">@	c #174622",
",@	c #938C73",
"'@	c #CDC3A0",
")@	c #979076",
"!@	c #B3AA8B",
"~@	c #CBC19E",
"{@	c #B7AE8E",
"]@	c #B2AA8B",
"^@	c #CCC29F",
"/@	c #958E74",
"(@	c #B4AB8D",
"_@	c #C4BA99",
":@	c #BEB594",
"<@	c #B2A98B",
"[@	c #948D74",
"                                                                ",
"                                                                ",
"              . + @                                             ",
"          # $ % & * =                                           ",
"        - ; > , ' ) ' =                       ! = = =           ",
"      ~ { ] ' > ^ / ^ =                     ( _ : < [ = =       ",
"    } ; | , 1 / 2 3 2 / =                 4 5 6 7 8 9 0 a =     ",
"    b c d e f = = f g 2 =               h i j k l m n o p =     ",
"  q r s t f =     = { 3 / =             u v w k l m x o p y =   ",
"  ( z A d =         = 2 ^ ' =         + B v j C C D [ o p f =   ",
"E F G A | =         = f > , =         4 H I J K L M N O P f =   ",
"= Q R S T =           ! ' ] T =     U V W C X Y Z `  .N ..+.=   ",
"= 5 i @.#.=           E $.%.#.@.= &.*.=.-.C ;.>.,.'.N  .).!.~.= ",
"= _ {.].@.=           ^./.#.@.].{._ (._.I  .:.<.[.}. .|.1.2.f = ",
"= 3.4.5.].f ^.      6.7.S @.].5.4.3.8.-.9.0.|. .C  .|.a.b.2.f = ",
"= c.3.4.{.d.e.h f.^.g.G R i {.4.3.c.W I j h.i.|.|.j.j.k.l.!.m.= ",
"= W c.3._ 5 5.n.V o.i p.5.5 _ 3.c.W v w q.r.s.t.u.v.w.x.y.+.y = ",
"= v W 8.(.z._ 4.4.5 4.4._ z.(.8.W v 9.A.r.l B.C.D.E.F.!.+.f G.= ",
"  = I -._.8.H.I.J.K.L.M.N.8._.-.I w A.6 l B.O.P.Q.B.R.+.f f =   ",
"  = S.9.I -.I.T.U.V.W.L.X.Y.I 9.j q.r.l Z.`. +.+++@+B.y.+.#+=   ",
"  = $+A.w 9.J.%+&+*+=+-+;+>+w ,+'+'+,+)+< B.!+~+~+O.{+]+!.^+=   ",
"    = r.k q.K./+(+_+:+<+[+}+|+1+2+3+'+,+[ B.O.4+5+B.6+7+y =     ",
"    = 8+l 9+L.0+a+b+c+d+e+f+1+g+h+i+j+'+k+l+B.B.B.{+m+7+n+=     ",
"      = 8 Z.<+L.K.L.<+o+p+q+r+i+s+i+j+t+u+v+l+{+6+w+x+y+=       ",
"      = z+A+B+d+<+d+o+C+D+E+1+j+i+i+F+G+H+I+y.]+J+K+L+M+=       ",
"        = N+O+P+Q+R+S+T+U+O+t+j+F+F+r+V+W+2.+.!.X+Y+M+=         ",
"          = Z+`+ @.@.@O +@@@#@t+F+r+t+V+$@2.f f Y+%@=           ",
"            = &@p p p p *@*@=@-@G+;@>@,@l.!.'@+.)@=             ",
"              = = !@+.~@'@f f +.-@{@]@{@-@^@n+= =               ",
"                  = = /@(@_@f f +.-@:@<@[@= =                   ",
"                      = = = = = = = = = =                       ",
"                                                                "};
