/* XPM */
static const char * H_small_xpm[] = {
"5 8 2 1",
" 	c None",
".	c #000000",
".   .",
".   .",
".   .",
".   .",
".....",
".   .",
".   .",
".   ."};
