/* XPM */
static const char * help_xpm[] = {
"22 22 4 1",
" 	c None",
".	c #000000",
"+	c #000080",
"@	c #484848",
"                      ",
"                      ",
"                      ",
"   .        +++++     ",
"   ..      +++@+++    ",
"   ...    +++@@ +++   ",
"   ....   ++@@   ++@  ",
"   .....  ++@    ++@  ",
"   ......  +@   +++@  ",
"   .......  @  +++@@  ",
"   ........   +++@@   ",
"   ......... +++@@    ",
"   .....@@@@@+++@     ",
"   ..@...     @@@     ",
"   .@@...@   +++      ",
"    @  ...   +++@     ",
"       ...@   @@@     ",
"        ...           ",
"        ...@          ",
"         @@@          ",
"                      ",
"                      "};
