/* XPM */
static const char * Hz_xpm[] = {
"18 16 2 1",
" 	c None",
".	c #000000",
"..     ..         ",
"..     ..         ",
"..     ..         ",
"..     ..         ",
"..     ..         ",
"..     .. ........",
"..     .. ........",
".........       ..",
".........      ...",
"..     ..     ... ",
"..     ..    ...  ",
"..     ..   ...   ",
"..     ..  ...    ",
"..     .. ...     ",
"..     .. ........",
"..     .. ........"};
