/* XPM */
static const char * max_str_xpm[] = {
"19 8 2 1",
" 	c None",
".	c #000000",
".     .            ",
"..   ..            ",
"... ...  ...  .   .",
". ... .     .  . . ",
".  .  .  ....   .  ",
".     . .   .   .  ",
".     . .  ..  . . ",
".     .  .. . .   ."};
