/* XPM */
static const char * min_str_xpm[] = {
"15 8 2 1",
" 	c None",
".	c #000000",
".     . .      ",
"..   .. .      ",
"... ...   . .. ",
". ... . . ..  .",
".  .  . . .   .",
".     . . .   .",
".     . . .   .",
".     . . .   ."};
