/* XPM */
static const char * minus_xpm[] = {
"22 63 2 1",
" 	c None",
".	c #000000",
"                      ",
"                      ",
"                      ",
"                      ",
"                      ",
"                      ",
"                      ",
"                      ",
"                      ",
"                      ",
"                      ",
"                      ",
"                      ",
"                      ",
"                      ",
"                      ",
"                      ",
"                      ",
"                      ",
"                      ",
"                      ",
"                      ",
"                      ",
"                      ",
"                      ",
"                      ",
"                      ",
"    ................  ",
"    ................  ",
"    ................  ",
"   ................   ",
"   ................   ",
"   ................   ",
"  ................    ",
"  ................    ",
"  ................    ",
"                      ",
"                      ",
"                      ",
"                      ",
"                      ",
"                      ",
"                      ",
"                      ",
"                      ",
"                      ",
"                      ",
"                      ",
"                      ",
"                      ",
"                      ",
"                      ",
"                      ",
"                      ",
"                      ",
"                      ",
"                      ",
"                      ",
"                      ",
"                      ",
"                      ",
"                      ",
"                      "};
