/* XPM */
static const char * n_xpm[] = {
"7 16 2 1",
" 	c None",
".	c #000000",
"       ",
"       ",
"       ",
"       ",
"       ",
".. ... ",
".......",
"...  ..",
"..   ..",
"..   ..",
"..   ..",
"..   ..",
"..   ..",
"..   ..",
"..   ..",
"..   .."};
