/* XPM */
static const char * numbers_small_xpm[] = {
"120 21 2 1",
" 	c None",
".	c #000000",
" ..........              ..........  ..........              ..........  ..........  ..........  ..........  .......... ",
". ........ .           .  ........ .  ........ ..          .. ........  . ........    ........ .. ........ .. ........ .",
".. ...... ..          ..   ...... ..   ...... ....        .... ......   .. ......      ...... .... ...... .... ...... ..",
"...      ...         ...         ...         ......      ......         ...                  ......      ......      ...",
"...      ...         ...         ...         ......      ......         ...                  ......      ......      ...",
"...      ...         ...         ...         ......      ......         ...                  ......      ......      ...",
"...      ...         ...         ...         ......      ......         ...                  ......      ......      ...",
"...      ...         ...         ...         ......      ......         ...                  ......      ......      ...",
"...      ...         ...         ...         ......      ......         ...                  ......      ......      ...",
"..        ..          ..   ...... ..   ...... .... ...... .... ......   .. ......             .... ...... .... ...... ..",
"                          ........    ........    ........    ........    ........                ........    ........  ",
"..        ..          .... ......      ...... ..   ...... ..   ...... .... ...... ..          .... ...... ..   ...... ..",
"...      ...         ......                  ...         ...         ......      ...         ......      ...         ...",
"...      ...         ......                  ...         ...         ......      ...         ......      ...         ...",
"...      ...         ......                  ...         ...         ......      ...         ......      ...         ...",
"...      ...         ......                  ...         ...         ......      ...         ......      ...         ...",
"...      ...         ......                  ...         ...         ......      ...         ......      ...         ...",
"...      ...         ......                  ...         ...         ......      ...         ......      ...         ...",
".. ...... ..          .... ......      ...... ..          ..   ...... .... ...... ..          .... ...... ..   ...... ..",
". ........ .           .. ........    ........ .           .  ........ .. ........ .           .. ........ .  ........ .",
" ..........              ..........  ..........              ..........  ..........              ..........  .......... "};
