/* XPM */
static const char * ten_bar_xpm[] = {
"9 7 2 1",
" 	c None",
".	c #000000",
"  .  ..  ",
" .. .  . ",
"  . .  . ",
"  . .  . ",
"  . .  . ",
"  . .  . ",
"  .  ..  "};
