/* XPM */
static const char * twenty_bar_xpm[] = {
"9 7 2 1",
" 	c None",
".	c #000000",
" ..   .. ",
".  . .  .",
"   . .  .",
"  .  .  .",
" .   .  .",
".    .  .",
"....  .. "};
