/* XPM */
static char * add_xpm[] = {
"32 32 430 2",
"  	c None",
". 	c #81CB74",
"+ 	c #57BA43",
"@ 	c #39AD1E",
"# 	c #3CB020",
"$ 	c #52BA37",
"% 	c #8ED27A",
"& 	c #ABDAA3",
"* 	c #DEEFDA",
"= 	c #8FCE82",
"- 	c #34A91C",
"; 	c #38AB1E",
"> 	c #76C560",
", 	c #D2EBCB",
"' 	c #D3EDCC",
") 	c #3EA92D",
"! 	c #9AD091",
"~ 	c #E3EDE2",
"{ 	c #C2E4B8",
"] 	c #AADC9B",
"^ 	c #B3DEA6",
"/ 	c #F1F5F0",
"( 	c #B4DDA8",
"_ 	c #72C55A",
": 	c #279C17",
"< 	c #5DB451",
"[ 	c #BEE2B6",
"} 	c #B0EC8D",
"| 	c #ABEB86",
"1 	c #AEDBA2",
"2 	c #67BC50",
"3 	c #46B128",
"4 	c #1F9610",
"5 	c #229712",
"6 	c #91D083",
"7 	c #A1E580",
"8 	c #A1D893",
"9 	c #3BA81F",
"0 	c #40AB21",
"a 	c #1C910F",
"b 	c #1F9210",
"c 	c #8BCE7D",
"d 	c #98E07A",
"e 	c #9CD58F",
"f 	c #38A31E",
"g 	c #3DA720",
"h 	c #1A8D0D",
"i 	c #1D8E0F",
"j 	c #88CB7B",
"k 	c #8FDC74",
"l 	c #97D38A",
"m 	c #359F1B",
"n 	c #39A31E",
"o 	c #18890C",
"p 	c #1A8A0E",
"q 	c #85C979",
"r 	c #87D76E",
"s 	c #87D86E",
"t 	c #93D087",
"u 	c #329B1A",
"v 	c #369F1C",
"w 	c #15850B",
"x 	c #18860D",
"y 	c #81C776",
"z 	c #7ED268",
"A 	c #7FD268",
"B 	c #7FD368",
"C 	c #8ECE83",
"D 	c #2F9819",
"E 	c #339C1B",
"F 	c #12800A",
"G 	c #16830C",
"H 	c #7FC575",
"I 	c #78CE63",
"J 	c #78CF63",
"K 	c #8ACC7F",
"L 	c #2C9418",
"M 	c #309819",
"N 	c #58AE58",
"O 	c #188D18",
"P 	c #037E01",
"Q 	c #057C03",
"R 	c #077B03",
"S 	c #097B05",
"T 	c #0C7A06",
"U 	c #0E7C07",
"V 	c #117D09",
"W 	c #147E0B",
"X 	c #7DC473",
"Y 	c #72CB5E",
"Z 	c #72CC5E",
"` 	c #73CC5E",
" .	c #86C97B",
"..	c #2A9016",
"+.	c #2D9417",
"@.	c #32991A",
"#.	c #369E1C",
"$.	c #3BA11F",
"%.	c #3FA622",
"&.	c #44AA24",
"*.	c #49B027",
"=.	c #5EBA3D",
"-.	c #8DD172",
";.	c #70BA70",
">.	c #74BA74",
",.	c #2E942E",
"'.	c #017B01",
").	c #037802",
"!.	c #067802",
"~.	c #077704",
"{.	c #0A7705",
"].	c #0C7806",
"^.	c #0E7908",
"/.	c #127B09",
"(.	c #79C070",
"_.	c #6CC85A",
":.	c #6DC95B",
"<.	c #6EC95B",
"[.	c #81C675",
"}.	c #288E14",
"|.	c #2B9116",
"1.	c #2F9618",
"2.	c #339A1B",
"3.	c #389F1E",
"4.	c #3DA320",
"5.	c #41A923",
"6.	c #46AD25",
"7.	c #6ABE4C",
"8.	c #9CD487",
"9.	c #9FD888",
"0.	c #1F931F",
"a.	c #50A950",
"b.	c #89C389",
"c.	c #89C486",
"d.	c #7ABE75",
"e.	c #79BD74",
"f.	c #78BE73",
"g.	c #77BE72",
"h.	c #77BF71",
"i.	c #76BE70",
"j.	c #75BE6D",
"k.	c #76BF6D",
"l.	c #80C976",
"m.	c #68C656",
"n.	c #6AC756",
"o.	c #6AC757",
"p.	c #6BC857",
"q.	c #86CC79",
"r.	c #7FC571",
"s.	c #82C775",
"t.	c #86C97A",
"u.	c #8ACB7F",
"v.	c #8ECD84",
"w.	c #91D088",
"x.	c #97D28C",
"y.	c #9ED595",
"z.	c #A3D499",
"A.	c #A6D696",
"B.	c #87CE6C",
"C.	c #6EC848",
"D.	c #028402",
"E.	c #1F8E1F",
"F.	c #85C283",
"G.	c #5BB64F",
"H.	c #57B74B",
"I.	c #57B94B",
"J.	c #57BB4B",
"K.	c #57BD4B",
"L.	c #59BE4C",
"M.	c #5BBF4D",
"N.	c #5EC14F",
"O.	c #60C250",
"P.	c #62C351",
"Q.	c #64C452",
"R.	c #65C553",
"S.	c #66C653",
"T.	c #67C653",
"U.	c #65C552",
"V.	c #63C451",
"W.	c #5DC04E",
"X.	c #64C257",
"Y.	c #6FC368",
"Z.	c #4AAD47",
"`.	c #038303",
" +	c #7FC274",
".+	c #65C044",
"++	c #57C02F",
"@+	c #008200",
"#+	c #007B00",
"$+	c #60AF5C",
"%+	c #50B046",
"&+	c #50B246",
"*+	c #50B546",
"=+	c #50B746",
"-+	c #51B846",
";+	c #54BA48",
">+	c #56BC49",
",+	c #5ABE4B",
"'+	c #5CBF4C",
")+	c #5FC14E",
"!+	c #61C24F",
"~+	c #63C350",
"{+	c #64C451",
"]+	c #64C350",
"^+	c #62C350",
"/+	c #66C454",
"(+	c #7BCB6E",
"_+	c #6CC263",
":+	c #46B040",
"<+	c #058F02",
"[+	c #008900",
"}+	c #008300",
"|+	c #59B04C",
"1+	c #4EB72A",
"2+	c #54BC2C",
"3+	c #008100",
"4+	c #007900",
"5+	c #58A955",
"6+	c #49AC41",
"7+	c #49AE41",
"8+	c #49B041",
"9+	c #49B341",
"0+	c #4BB542",
"a+	c #4EB744",
"b+	c #51B945",
"c+	c #55BB47",
"d+	c #58BD49",
"e+	c #5BBF4B",
"f+	c #5EC14C",
"g+	c #60C24D",
"h+	c #62C34E",
"i+	c #7BCD6B",
"j+	c #7BCD6C",
"k+	c #73C764",
"l+	c #5DBB4E",
"m+	c #27A218",
"n+	c #1A9B0D",
"o+	c #109508",
"p+	c #079004",
"q+	c #008B00",
"r+	c #008400",
"s+	c #55AF48",
"t+	c #4BB428",
"u+	c #52BB2B",
"v+	c #008000",
"w+	c #007700",
"x+	c #479C45",
"y+	c #20911D",
"z+	c #259821",
"A+	c #2A9F25",
"B+	c #31A52C",
"C+	c #3AAC33",
"D+	c #45B33D",
"E+	c #53B947",
"F+	c #57BA47",
"G+	c #5BBC4B",
"H+	c #5FC04E",
"I+	c #67C255",
"J+	c #65C151",
"K+	c #5ABD44",
"L+	c #40B124",
"M+	c #38AD1D",
"N+	c #34AB1B",
"O+	c #2EA818",
"P+	c #27A415",
"Q+	c #1E9E10",
"R+	c #14980A",
"S+	c #0A9205",
"T+	c #008C00",
"U+	c #008500",
"V+	c #5BB34C",
"W+	c #49B327",
"X+	c #4FB929",
"Y+	c #007500",
"Z+	c #0C740C",
"`+	c #378E37",
" @	c #328E32",
".@	c #328F32",
"+@	c #329132",
"@@	c #349234",
"#@	c #389535",
"$@	c #3C9638",
"%@	c #409A39",
"&@	c #449D3C",
"*@	c #4CAB3E",
"=@	c #33AB1B",
"-@	c #3AAF1E",
";@	c #3EB221",
">@	c #41B323",
",@	c #5DB647",
"'@	c #56AD44",
")@	c #55AD44",
"!@	c #53AD43",
"~@	c #50AD41",
"{@	c #4CAC40",
"]@	c #4AAB3E",
"^@	c #47AA3C",
"/@	c #53AE45",
"(@	c #48B02C",
"_@	c #46B226",
":@	c #4DB828",
"<@	c #006B00",
"[@	c #006500",
"}@	c #006000",
"|@	c #005E00",
"1@	c #005D00",
"2@	c #015F00",
"3@	c #036001",
"4@	c #056202",
"5@	c #066503",
"6@	c #449D39",
"7@	c #38AE1E",
"8@	c #40B222",
"9@	c #46B625",
"0@	c #4AB827",
"a@	c #55AB42",
"b@	c #197D0D",
"c@	c #1D810F",
"d@	c #218611",
"e@	c #248B13",
"f@	c #289015",
"g@	c #2C9517",
"h@	c #309A19",
"i@	c #359F1C",
"j@	c #3AA51F",
"k@	c #44B125",
"l@	c #006300",
"m@	c #005B00",
"n@	c #005A00",
"o@	c #005C00",
"p@	c #015D01",
"q@	c #036002",
"r@	c #056203",
"s@	c #409A34",
"t@	c #45B524",
"u@	c #4CBA28",
"v@	c #51BD2B",
"w@	c #54AB3F",
"x@	c #187C0D",
"y@	c #1B810E",
"z@	c #1E8510",
"A@	c #228A12",
"B@	c #268F14",
"C@	c #2A9416",
"D@	c #2E9918",
"E@	c #339E1A",
"F@	c #38A41E",
"G@	c #3DAA20",
"H@	c #035E01",
"I@	c #046102",
"J@	c #3C9730",
"K@	c #3EB121",
"L@	c #49B826",
"M@	c #52BD2B",
"N@	c #59C12F",
"O@	c #52AA3D",
"P@	c #167B0C",
"Q@	c #1A800E",
"R@	c #015B01",
"S@	c #035F01",
"T@	c #37952B",
"U@	c #3DB120",
"V@	c #49B827",
"W@	c #55BF2D",
"X@	c #5FC532",
"Y@	c #52AA39",
"Z@	c #147A0B",
"`@	c #187F0D",
" #	c #005900",
".#	c #025E01",
"+#	c #309026",
"@#	c #38AE1D",
"##	c #53BE2C",
"$#	c #60C633",
"%#	c #52AB38",
"&#	c #137A0A",
"*#	c #177F0C",
"=#	c #015C01",
"-#	c #278C1F",
";#	c #2FA819",
">#	c #3BB01F",
",#	c #47A531",
"'#	c #127A0A",
")#	c #157F0B",
"!#	c #1D8617",
"~#	c #21A011",
"{#	c #2BA617",
"]#	c #3CB01F",
"^#	c #349B24",
"/#	c #107B09",
"(#	c #14800A",
"_#	c #11810F",
":#	c #0F9508",
"<#	c #16990C",
"[#	c #1D9D0F",
"}#	c #1F9F10",
"|#	c #209016",
"1#	c #0F7D07",
"2#	c #138209",
"3#	c #046003",
"4#	c #12690A",
"5#	c #268416",
"6#	c #028D01",
"7#	c #068F03",
"8#	c #258A23",
"9#	c #1B7B15",
"0#	c #13810B",
"a#	c #0D6C08",
"b#	c #3F821E",
"c#	c #719728",
"d#	c #2D8613",
"e#	c #047A04",
"f#	c #057D04",
"g#	c #3A9239",
"h#	c #4B8948",
"i#	c #267B21",
"j#	c #147F0D",
"k#	c #609925",
"l#	c #82A62B",
"m#	c #42911E",
"n#	c #027701",
"o#	c #047B02",
"p#	c #69A567",
"q#	c #4D904B",
"r#	c #278123",
"s#	c #65AB2A",
"t#	c #2E9218",
"u#	c #038301",
"v#	c #6CAE6A",
"w#	c #549951",
"                                                                ",
"                          . + @ # $ %                           ",
"                        & * = - ; > , '                         ",
"                      ) ! ~ { ] ] ^ / ( _                       ",
"                      : < [ } | | | 1 2 3                       ",
"                      4 5 6 7 7 7 7 8 9 0                       ",
"                      a b c d d d d e f g                       ",
"                      h i j k k k k l m n                       ",
"                      o p q r s s s t u v                       ",
"                      w x y z A B B C D E                       ",
"                      F G H I J J J K L M                       ",
"      N O P Q R S T U V W X Y Z ` `  ...+.@.#.$.%.&.*.=.-.      ",
"    ;.>.,.'.).!.~.{.].^./.(._.:.<.<.[.}.|.1.2.3.4.5.6.7.8.9.    ",
"  0.a.b.c.d.e.f.g.h.i.j.k.l.m.n.o.p.q.r.s.t.u.v.w.x.y.z.A.B.C.  ",
"  D.E.F.G.H.I.J.K.L.M.N.O.P.Q.R.S.T.T.S.U.V.O.W.X.Y.Z.`. +.+++  ",
"  @+#+$+%+&+*+=+-+;+>+,+'+)+!+~+{+{+{+]+^+/+(+_+:+<+[+}+|+1+2+  ",
"  3+4+5+6+7+8+9+0+a+b+c+d+e+f+g+h+m.i+j+k+l+m+n+o+p+q+r+s+t+u+  ",
"  v+w+x+y+z+A+B+C+D+=+E+F+G+H+I+J+K+L+M+N+O+P+Q+R+S+T+U+V+W+X+  ",
"  v+Y+Z+`+ @.@+@@@#@$@%@&@*@=@-@;@>@,@'@)@)@!@~@{@]@^@/@(@_@:@  ",
"    Y+<@[@}@|@1@|@2@3@4@5@6@7@8@9@0@a@b@c@d@e@f@g@h@i@j@0 k@    ",
"      <@l@1@m@n@n@o@p@q@r@s@# t@u@v@w@x@y@z@A@B@C@D@E@F@G@      ",
"                      H@I@J@K@L@M@N@O@P@Q@                      ",
"                      R@S@T@U@V@W@X@Y@Z@`@                      ",
"                       #.#+#@#9@##$#%#&#*#                      ",
"                       #=#-#;#>#L@W@,#'#)#                      ",
"                       #1@!#~#{#N+]#^#/#(#                      ",
"                      n@|@_#:#<#[#}#|#1#2#                      ",
"                      3#4#5#q+6#<+7#8#9#0#                      ",
"                      a#b#c#d#e#f#g#h#i#j#                      ",
"                        k#l#m#n#o#p#q#r#                        ",
"                          s#t#v+u#v#w#                          ",
"                                                                "};
