/* XPM */
static const char * bar_xpm[] = {
"5 9 2 1",
" 	c None",
".	c #000000",
"  .  ",
" ... ",
".....",
".....",
".....",
".....",
".....",
".....",
"....."};
