/* XPM */
static char * buzzer_xpm[] = {
"17 14 2 1",
" 	c None",
".	c #000000",
"             .   ",
"         .   ..  ",
"         ..   .  ",
"     .    .   .  ",
"     ..   .   .. ",
" .    .   ..   . ",
"...   ..   .   ..",
"...   ..   .   ..",
" .    .   ..   . ",
"     ..   .   .. ",
"     .    .   .  ",
"         ..   .  ",
"         .   ..  ",
"             .   "};
