/* XPM */
static const char * M_small_xpm[] = {
"7 8 2 1",
" 	c None",
".	c #000000",
".     .",
"..   ..",
"... ...",
". ... .",
".  .  .",
".     .",
".     .",
".     ."};
