/* XPM */
static const char * dc_xpm[] = {
"18 14 2 1",
" 	c None",
".	c #000000",
"......      ....  ",
".......    ...... ",
"..   ...  ...  ...",
"..    ..  ..    ..",
"..    ..  ..      ",
"..    ..  ..      ",
"..    ..  ..      ",
"..    ..  ..      ",
"..    ..  ..      ",
"..    ..  ..      ",
"..    ..  ..    ..",
"..   ...  ...  ...",
".......    ...... ",
"......      ....  "};
