/* XPM */
static const char * deg_small_xpm[] = {
"10 8 2 1",
" 	c None",
".	c #000000",
" ..   ... ",
".  . .   .",
".  . .    ",
" ..  .    ",
"     .    ",
"     .    ",
"     .   .",
"      ... "};
