/* XPM */
static char * degf_small_xpm[] = {
"10 8 2 1",
" 	c None",
".	c #000000",
" ..  .....",
".  . .    ",
".  . .    ",
" ..  ...  ",
"     .    ",
"     .    ",
"     .    ",
"     .    "};
