/* XPM */
static const char * export_xpm[] = {
"22 22 117 2",
"  	c None",
". 	c #6B6B6B",
"+ 	c #000000",
"@ 	c #C1C1C1",
"# 	c #3F3F3F",
"$ 	c #4A4A4A",
"% 	c #717171",
"& 	c #6D6D6D",
"* 	c #8A8A8A",
"= 	c #5C5C5C",
"- 	c #636363",
"; 	c #505050",
"> 	c #747474",
", 	c #434343",
"' 	c #565656",
") 	c #FFFFFF",
"! 	c #DFDFDF",
"~ 	c #464646",
"{ 	c #6C6C6C",
"] 	c #040404",
"^ 	c #E0E0E0",
"/ 	c #616161",
"( 	c #545454",
"_ 	c #9B9B9B",
": 	c #FEFEFE",
"< 	c #5E5E5E",
"[ 	c #777777",
"} 	c #5B5B5B",
"| 	c #4D4D4D",
"1 	c #D8E6E6",
"2 	c #767676",
"3 	c #C4C4C4",
"4 	c #151515",
"5 	c #B3B3B3",
"6 	c #7B7B7B",
"7 	c #BABABA",
"8 	c #494949",
"9 	c #828282",
"0 	c #EFF0F0",
"a 	c #F9F9F9",
"b 	c #797979",
"c 	c #060606",
"d 	c #989898",
"e 	c #9A9A9A",
"f 	c #3D3D3D",
"g 	c #FCFCFC",
"h 	c #CBCBCB",
"i 	c #0C0C0C",
"j 	c #919191",
"k 	c #949494",
"l 	c #929292",
"m 	c #7C7C7C",
"n 	c #888888",
"o 	c #787878",
"p 	c #737373",
"q 	c #757575",
"r 	c #8E8E8E",
"s 	c #909090",
"t 	c #8D8D8D",
"u 	c #8B8B8B",
"v 	c #535353",
"w 	c #BBBBBB",
"x 	c #424242",
"y 	c #848484",
"z 	c #838383",
"A 	c #454545",
"B 	c #3A3A3A",
"C 	c #858585",
"D 	c #585858",
"E 	c #404040",
"F 	c #CACACA",
"G 	c #2F2F2F",
"H 	c #6E6E6E",
"I 	c #EAEAEA",
"J 	c #969696",
"K 	c #4C4C4C",
"L 	c #5F5F5F",
"M 	c #7A7A7A",
"N 	c #707070",
"O 	c #BEBEBE",
"P 	c #4E4E4E",
"Q 	c #6A6A6A",
"R 	c #4F4F4F",
"S 	c #9C9C9C",
"T 	c #F1F1F1",
"U 	c #EFEFEF",
"V 	c #D6D6D6",
"W 	c #444444",
"X 	c #6F6F6F",
"Y 	c #2B2B2B",
"Z 	c #676767",
"` 	c #F4F4F4",
" .	c #DADADA",
"..	c #E3E3E3",
"+.	c #EDEDED",
"@.	c #808080",
"#.	c #515151",
"$.	c #3B3B3B",
"%.	c #656565",
"&.	c #F2F2F2",
"*.	c #CECECE",
"=.	c #C5C5C5",
"-.	c #BCBCBC",
";.	c #818181",
">.	c #606060",
",.	c #5A5A5A",
"'.	c #010101",
").	c #A7A7A7",
"!.	c #B8B8B8",
"~.	c #8C8C8C",
"{.	c #A8A8A8",
"].	c #898989",
"^.	c #414141",
"/.	c #555555",
"(.	c #C9C9C9",
"_.	c #353535",
":.	c #383838",
"          . +                               ",
"          + @ # $ %                         ",
"        & * @ = - = # ; >                   ",
"        , @ @ ' ) ! = & = # ~ {             ",
"        ] @ ' ^ ) ) ) ) ! = / = # ( >       ",
"      { _ @ # : ) ) ) ) ) ) ) ! = < [ + }   ",
"      | @ @ ' ) ) ) ) ) ) ) ) : 1 ' 2 3 +   ",
"      4 5 ' ^ ) ) ) ) ) ) ) ) ) ' 6 > 7 8   ",
"    . 9 5 # 0 ) ) ) ) ) ) ) ) a # b 7 c     ",
"    | d e f { g ) ) ) ) ) ) ) ! ' 2 h f     ",
"    i j k l m ( # n ) ) ) ) ) ' o p 7 $     ",
"  { q * r s t u l > v # * ) ^ # > w +       ",
"  x y z A B ' u n C n y & D E q [ F G       ",
"  c m H o I J ~ K L b 9 M o > N . O P       ",
". Q p R S ) T U V z W ~ 2 % X . 7 ]         ",
"Y & Z ~ ` I  ...+.^ @.#.$.W = Z h x         ",
"= + %.# &.V V *.=.-.( C ;.$.>.>.w ,.        ",
"  . ~ '.~ ).3 -.!.* ~ m ~.v v w +           ",
"        . ~ + ~ {.~ C ].^./.v (._.          ",
"              . ~ + ~ J :.v v 7 8           ",
"                    . ~ + ~ /.]             ",
"                          . + }             "};
