/* XPM */
static const char * graph_xpm[] = {
"32 32 4 1",
" 	c None",
".	c #000000",
"+	c #939393",
"@	c #001ECC",
"                                ",
"    .     +     +     +     +   ",
"    .     +     +     +     +   ",
"    .     +     +     +     +   ",
"   ..+++++++++++++++++++++++++  ",
"    .     +     +     +     +   ",
"    .     +     +     +     +   ",
"    .     +     +     +     +   ",
"   ..++++++@@@@@++++++++++++++  ",
"    .     @@@@@@@     +     +   ",
"    .    @@@@@@@@     +     +   ",
"    .   @@@@@@@@@     +     +   ",
"   ..+++@@@@++@@@+++++++++++++  ",
"    .  @@@@@  @@@@    +     +   ",
"    .  @@@@   @@@@    +     +   ",
"    . @@@@@    @@@    +     +   ",
"   ..@@@@@+++++@@@@+++++++++++  ",
"    .@@@@ +    @@@@   +    @@@  ",
"    .@@@@ +    @@@@   +   @@@@  ",
"    .@@@  +     @@@@  +  @@@@@  ",
"   ..@@@++++++++@@@@+++++@@@@@  ",
"    .@@   +     +@@@@ +@@@@@@   ",
"    .@@   +     +@@@@@@@@@@@+   ",
"    .     +     + @@@@@@@@@ +   ",
"   ..+++++++++++++@@@@@@@@++++  ",
"    .     +     +  @@@@@    +   ",
"    .     +     +     +     +   ",
"    .     +     +     +     +   ",
"   ...........................  ",
"    .     .     .     .     .   ",
"                                ",
"                                "};
