/* XPM */
static const char * H_xpm[] = {
"12 16 2 1",
" 	c None",
".	c #000000",
"..     ..   ",
"..     ..   ",
"..     ..   ",
"..     ..   ",
"..     ..   ",
"..     ..   ",
"..     ..   ",
".........   ",
".........   ",
"..     ..   ",
"..     ..   ",
"..     ..   ",
"..     ..   ",
"..     ..   ",
"..     ..   ",
"..     ..   "};
