/* XPM */
static const char * Hz_small_xpm[] = {
"10 8 2 1",
" 	c None",
".	c #000000",
".   .     ",
".   .     ",
".   . ....",
".   .    .",
".....   . ",
".   .  .  ",
".   . .   ",
".   . ...."};
