/* XPM */
static const char * icon_gray_xpm[] = {
"32 32 15 1",
" 	c None",
".	c #000000",
"+	c #7F7F7F",
"@	c #595959",
"#	c #3A3A3A",
"$	c #C8CFC8",
"%	c #919191",
"&	c #A95454",
"*	c #FFFFFF",
"=	c #969696",
"-	c #A9A254",
";	c #545EA9",
">	c #C4C4C4",
",	c #5460A9",
"'	c #141414",
"                                ",
"      .....................     ",
"     .+++++++++++++++++++++.    ",
"    .+@@@@@@@@@@@@@@@@@@@@@#.   ",
"    .+@...................@#.   ",
"    .+@.$$$$$$$$$$$$$$$$$.@#.   ",
"    .+@.$...$$$.$.$...$.$.@#.   ",
"    .+@.$$$.$$$.$.$$$.$.$.@#.   ",
"    .+@.$...$$$...$...$.$.@#.   ",
"    .+@.$$$.$$$$$.$.$$$.$.@#.   ",
"    .+@.$...$.$$$.$...$.$.@#.   ",
"    .+@.$$$$$$$$$$$$$$$$$.@#.   ",
"    .+@.$.%.%.%.$$$$$$$$$.@#.   ",
"    .+@.$.%.%.%.$$$$$$$$$.@#.   ",
"    .+@.$$$$$$$$$$$$$$$$$.@#.   ",
"    .+@...................@#.   ",
"    .+@@@@@@@@@@@@@@@@@@@@@#.   ",
"    .+@&&@@@@@@@@@@@@@@@@@@@.   ",
"    .+&*&&@@@@@@@..........#.   ",
"    .+&**&@@@@...==========#.   ",
"    .+@&&@@...======-===;;=#.   ",
"    .@@@@..========---=;;;;#.   ",
"    .+...=====>>==>====;;;;#.   ",
"    .+=====>==========>=;;=#.   ",
"    .+-======--->>>>==>====#.   ",
"    .+-=>==>>--->>>>>>=====#.   ",
"    .+->==>>>.......>>,==>=#.   ",
"    .+-==>>>.........,,,=>=#.   ",
"    .+-==>>.*.#####...,,===#.   ",
"    .+-=&&..#*'#####...,,==#.   ",
"    .+-=&&..#'''#####..,,==#.   ",
"    #########################   "};
