/* XPM */
static char * instances_xpm[] = {
"32 32 164 2",
"  	c None",
". 	c #D68504",
"+ 	c #000000",
"@ 	c #563D06",
"# 	c #D38D06",
"$ 	c #915906",
"% 	c #7F5309",
"& 	c #F2BB0E",
"* 	c #875208",
"= 	c #DE9506",
"- 	c #7F7F7F",
"; 	c #86827D",
"> 	c #8B867C",
", 	c #8B887C",
"' 	c #CA954A",
") 	c #F5CB35",
"! 	c #B9774A",
"~ 	c #FFE840",
"{ 	c #C18046",
"] 	c #EABA24",
"^ 	c #E8AA18",
"/ 	c #595959",
"( 	c #84654F",
"_ 	c #CE922B",
": 	c #B77E3A",
"< 	c #AC6738",
"[ 	c #FFE655",
"} 	c #F6CE3B",
"| 	c #FFEA64",
"1 	c #F4CD3B",
"2 	c #FFEE60",
"3 	c #AE6100",
"4 	c #DC8C03",
"5 	c #E3A115",
"6 	c #1C1401",
"7 	c #794A03",
"8 	c #F7E05F",
"9 	c #FADF5E",
"0 	c #FAE062",
"a 	c #FFEA77",
"b 	c #FFEA76",
"c 	c #FDE568",
"d 	c #F7D757",
"e 	c #FFEC68",
"f 	c #DB8F0F",
"g 	c #C0D8C1",
"h 	c #C1D8C0",
"i 	c #C3D5BB",
"j 	c #C8A17C",
"k 	c #F9E165",
"l 	c #FFF18C",
"m 	c #FFF08B",
"n 	c #FFF08C",
"o 	c #FDE871",
"p 	c #CE7200",
"q 	c #B6CBB5",
"r 	c #804F00",
"s 	c #C59C00",
"t 	c #FDEB45",
"u 	c #FFFAA4",
"v 	c #FFF6A9",
"w 	c #FFF6A5",
"x 	c #FFF6A3",
"y 	c #FFF9A8",
"z 	c #FFF254",
"A 	c #F7CA00",
"B 	c #DC9402",
"C 	c #323232",
"D 	c #CDE0CE",
"E 	c #C1D8C1",
"F 	c #C6D6BD",
"G 	c #D09838",
"H 	c #F9CF00",
"I 	c #FFDF0E",
"J 	c #FFE329",
"K 	c #FFE531",
"L 	c #FFE32A",
"M 	c #FFDF11",
"N 	c #FDD600",
"O 	c #E5A83A",
"P 	c #A25E05",
"Q 	c #2D2D2D",
"R 	c #D0E1D1",
"S 	c #494949",
"T 	c #B5A287",
"U 	c #EEC212",
"V 	c #FFE700",
"W 	c #FFDF00",
"X 	c #FFDE00",
"Y 	c #FFDD00",
"Z 	c #FFE600",
"` 	c #F5CD0D",
" .	c #A1620C",
"..	c #303030",
"+.	c #CEDFCF",
"@.	c #A79986",
"#.	c #DAB369",
"$.	c #E6C25C",
"%.	c #DC9D4C",
"&.	c #FBD800",
"*.	c #FEE100",
"=.	c #FFE200",
"-.	c #FFE201",
";.	c #FFE400",
">.	c #CC8A3A",
",.	c #E9BA33",
"'.	c #E3A700",
").	c #141414",
"!.	c #C3D9C4",
"~.	c #68645F",
"{.	c #534D44",
"].	c #676560",
"^.	c #E1C17A",
"/.	c #E5CC00",
"(.	c #D69A48",
"_.	c #FFF000",
":.	c #C78A2E",
"<.	c #EDD011",
"[.	c #DCB043",
"}.	c #C1D8C2",
"|.	c #C1D9C2",
"1.	c #C3D9C3",
"2.	c #D7C283",
"3.	c #C3D7BD",
"4.	c #D2D0B4",
"5.	c #E9CA00",
"6.	c #8C7C6B",
"7.	c #74634B",
"8.	c #C79704",
"9.	c #C2D9C3",
"0.	c #CCDDCA",
"a.	c #E1D1A9",
"b.	c #C0D4BF",
"c.	c #BCC3B1",
"d.	c #B68207",
"e.	c #5F5F5D",
"f.	c #4F504F",
"g.	c #B4976F",
"h.	c #BBCFBC",
"i.	c #C1D6C3",
"j.	c #D4DFD5",
"k.	c #4C4337",
"l.	c #5E5F60",
"m.	c #828386",
"n.	c #BED4BF",
"o.	c #C2D8C3",
"p.	c #C4DAC6",
"q.	c #C9DBCB",
"r.	c #121213",
"s.	c #5B5B5B",
"t.	c #424242",
"u.	c #383939",
"v.	c #121212",
"w.	c #181919",
"x.	c #181819",
"y.	c #3A3A3A",
"z.	c #0A0A0B",
"A.	c #FF0000",
"B.	c #FFFFFF",
"C.	c #969696",
"D.	c #FFEE00",
"E.	c #0019FF",
"F.	c #C4C4C4",
"G.	c #0022FF",
"                                                  .             ",
"            + + + + + + + + + + + + + + + @ # $ % & *   =       ",
"          + - - - - - - - - - - - - - ; > , ' ) ! ~ { ] ^       ",
"        + - / / / / / / / / / / / / / ( _ : < [ } | 1 2 3 4 5   ",
"        + - / + + + + + + + + + + + + 6 7 8 9 0 a b a c d e f   ",
"        + - / + g g g g g g g g g g h h i j k l m m m n o p     ",
"        + - / + g + + + g g g + g + q r s t u v w x w v y z A B ",
"        + - / + g g g + g g g + g C D E F G H I J K L M N O P   ",
"        + - / + g + + + g g g + + Q R S T U V W X X X Y Z `  .  ",
"        + - / + g g g + g g g g g ..+.@.#.$.%.&.*.=.-.;.>.,.'.  ",
"        + - / + g + + + g + g g g ).!.~.{.].^./.(._.:.<.[.      ",
"        + - / + g g g g g g g g g g g }.|.1.2.3.4.5.6.7.8.      ",
"        + - / + g + g + g + g + g g g g 9.0.a.b.c.d.e.f.g.      ",
"        + - / + g + g + g + g + g g g g |.9.h.i.j.k./ l.m.      ",
"        + - / + g g g g g g g g g g g g g n.o.p.q.r.s.t.u.      ",
"        + - / + + + + + + + + + + + + + + v.w.x.r.r./ y.z.      ",
"        + - / / / / / / / / / / / / / / / / / / / / / y.+       ",
"        + - / A.A./ / / / / / / / / / / / / / / / / / / +       ",
"        + - A.B.A.A./ / / / / / / + + + + + + + + + + y.+       ",
"        + - A.B.B.A./ / / / + + + C.C.C.C.C.C.C.C.C.C.y.+       ",
"        + - / A.A./ / + + + C.C.C.C.C.C.D.C.C.C.E.E.C.y.+       ",
"        + / / / / + + C.C.C.C.C.C.C.C.D.D.D.C.E.E.E.E.y.+       ",
"        + - + + + C.C.C.C.C.F.F.C.C.F.C.C.C.C.E.E.E.E.y.+       ",
"        + - C.C.C.C.C.F.C.C.C.C.C.C.C.C.C.C.F.C.E.E.C.y.+       ",
"        + - D.C.C.C.C.C.C.D.D.D.F.F.F.F.C.C.F.C.C.C.C.y.+       ",
"        + - D.C.F.C.C.F.F.D.D.D.F.F.F.F.F.F.C.C.C.C.C.y.+       ",
"        + - D.F.C.C.F.F.F.+ + + + + + + F.F.G.C.C.F.C.y.+       ",
"        + - D.C.C.F.F.F.+ + + + + + + + + G.G.G.C.F.C.y.+       ",
"        + - D.C.C.F.F.+ B.+ y.y.y.y.y.+ + + G.G.C.C.C.y.+       ",
"        + - D.C.A.A.+ + y.B.).y.y.y.y.y.+ + + G.G.C.C.y.+       ",
"        + - D.C.A.A.+ + y.).).).y.y.y.y.y.+ + G.G.C.C.y.+       ",
"        y.y.y.y.y.y.y.y.y.y.y.y.y.y.y.y.y.y.y.y.y.y.y.y.y.      "};
