/* XPM */
static const char * integration_xpm[] = {
"32 32 82 1",
" 	c None",
".	c #FFFFFF",
"+	c #FAFAFA",
"@	c #F4F4F4",
"#	c #F2F2F2",
"$	c #F9F9F9",
"%	c #EAEAEA",
"&	c #747474",
"*	c #4A4A4A",
"=	c #2D2D2D",
"-	c #E8E8E8",
";	c #545454",
">	c #1A1A1A",
",	c #343434",
"'	c #0B0B0B",
")	c #040404",
"!	c #525252",
"~	c #EEEEEE",
"{	c #1E1E1E",
"]	c #151515",
"^	c #8B8B8B",
"/	c #323232",
"(	c #575757",
"_	c #FEFEFE",
":	c #C9C9C9",
"<	c #0F0F0F",
"[	c #1B1B1B",
"}	c #ADADAD",
"|	c #EDEDED",
"1	c #464646",
"2	c #070707",
"3	c #444444",
"4	c #FDFDFD",
"5	c #F1F1F1",
"6	c #0E0E0E",
"7	c #CBCBCB",
"8	c #191919",
"9	c #ECECEC",
"0	c #C8C8C8",
"a	c #0D0D0D",
"b	c #EFEFEF",
"c	c #F3F3F3",
"d	c #F5F5F5",
"e	c #3F3F3F",
"f	c #020202",
"g	c #858585",
"h	c #363636",
"i	c #4F4F4F",
"j	c #E4E4E4",
"k	c #EBEBEB",
"l	c #7E7E7E",
"m	c #717171",
"n	c #777777",
"o	c #F0F0F0",
"p	c #171717",
"q	c #000000",
"r	c #121212",
"s	c #656565",
"t	c #8E8E8E",
"u	c #2A2A2A",
"v	c #080808",
"w	c #212121",
"x	c #5C5C5C",
"y	c #B5B5B5",
"z	c #101010",
"A	c #E9E9E9",
"B	c #484848",
"C	c #F7F7F7",
"D	c #373737",
"E	c #030303",
"F	c #9A9A9A",
"G	c #E1E1E1",
"H	c #CDCDCD",
"I	c #4D4D4D",
"J	c #FCFCFC",
"K	c #FBFBFB",
"L	c #050505",
"M	c #0C0C0C",
"N	c #F8F8F8",
"O	c #3B3B3B",
"P	c #060606",
"Q	c #595959",
"                                ",
"         .+@#$.                 ",
"        .%&*=*-.                ",
"        $;>,')!+                ",
"        ~{]^/'(+                ",
"       _:<[%~}|.                ",
"       $1234._.                 ",
"       5{67.                    ",
"       |889                     ",
"      _0a8b     .+@c$. .+dd+.   ",
"      $ef]b    _9g;hij4k^lmn%.  ",
"      opqr~   .ks(tuvwn!xy!zi$  ",
"      brqrb   +^sA40af'B|CDE{c  ",
"      ~rqpo   CFG_ C/f'H._('I$  ",
"      b]fe$   J-K  JmL8o .~}|.  ",
"      9pM0_   ._.  NOP3$  ._.   ",
"     _0Mp9         ~[6:_        ",
"     $ef]b        _:6[~         ",
"     opqr~   ._.  $3PON  ._.    ",
"     brqrb  .|}~. o8LmJ  K-J    ",
"     ~rqpo  $I'(_.H'f/C _GFC    ",
"     b]fe$  c{EDC|B'fa04As^+    ",
"     b8a0_  $iz!yx!nwvut(sk.    ",
"     988|   .%nml^k4jih;g9_     ",
"    .76{5    .+dd+. .$c@+.      ",
" ._.4321$                       ",
".o}~%[<:_                       ",
".Q'/^]{~                        ",
".;)',>;$                        ",
".k*=*&%.                        ",
" .$#@+.                         ",
"                                "};
