/* XPM */
static const char * integration_old_xpm[] = {
"32 32 4 1",
" 	c None",
".	c #0033FF",
"+	c #114811",
"@	c #00A500",
"                                ",
"                                ",
"          ....                  ",
"         .. ...                 ",
"         .. ...                 ",
"         ..  .                  ",
"        ...                     ",
"        ..                      ",
"        ..                      ",
"        ..                      ",
"       ...       +@@@   @@@@    ",
"       ...      @@ @@@ @@  @@   ",
"       ...     @@   @@@@  @@@   ",
"       ...     @    @@@   @@@   ",
"       ...     @     @@    @    ",
"       ..           @@@         ",
"       ..           @@          ",
"      ...           @@          ",
"      ...          @@@          ",
"      ...     @    @@     @     ",
"      ...    @@@   @@@    @     ",
"      ...    @@@  @@@@   @@     ",
"      ..     @@  @@ @@@ @@      ",
"      ..      @@@@   @@@@       ",
"      ..                        ",
"     ...                        ",
"  .  ..                         ",
" ... ..                         ",
" ... ..                         ",
"  ....                          ",
"                                ",
"                                "};
