/* XPM */
static const char * l_small_xpm[] = {
"12 21 2 1",
" 	c None",
".	c #000000",
"            ",
".           ",
"..          ",
"...         ",
"...         ",
"...         ",
"...         ",
"...         ",
"...         ",
"..          ",
"            ",
"..          ",
"...         ",
"...         ",
"...         ",
"...         ",
"...         ",
"...         ",
".. ......   ",
". ........  ",
" .......... "};
