/* XPM */
static const char * m_xpm[] = {
"11 16 2 1",
" 	c None",
".	c #000000",
"           ",
"           ",
"           ",
"           ",
"           ",
"...... ... ",
"...........",
" ..  ..  ..",
" ..  ..  ..",
" ..  ..  ..",
" ..  ..  ..",
" ..  ..  ..",
" ..  ..  ..",
" ..  ..  ..",
" ..  ..  ..",
" ..  ..  .."};
