/* XPM */
static const char * m_small_xpm[] = {
"7 8 2 1",
" 	c None",
".	c #000000",
"       ",
"       ",
"... .. ",
".  .  .",
".  .  .",
".  .  .",
".  .  .",
".  .  ."};
