/* XPM */
static char * menu_xpm[] = {
"32 32 25 1",
" 	c None",
".	c #717171",
"+	c #727272",
"@	c #686868",
"#	c #FCFCFC",
"$	c #FAFAFA",
"%	c #F7F7F7",
"&	c #F4F4F4",
"*	c #F1F1F1",
"=	c #EEEEEE",
"-	c #EBEBEB",
";	c #E8E8E8",
">	c #E4E4E4",
",	c #E1E1E1",
"'	c #E0E0E0",
")	c #5E5E5E",
"!	c #FBFBFB",
"~	c #F8F8F8",
"{	c #F5F5F5",
"]	c #F2F2F2",
"^	c #EFEFEF",
"/	c #ECECEC",
"(	c #E5E5E5",
"_	c #E2E2E2",
":	c #545454",
"                                ",
"                                ",
"                                ",
"    .++++++++++++++++++++++.    ",
"    @#########$%&*=-;>,''''@    ",
"    @#########$%&*=-;>,''''@    ",
"    )#######!~{]^/;(_'''''')    ",
"    ::::::::::::::::::::::::    ",
"                                ",
"                                ",
"                                ",
"                                ",
"                                ",
"    ++++++++++++++++++++++++    ",
"    @#########$%&*=-;>,''''@    ",
"    @#########$%&*=-;>,''''@    ",
"    )#######!~{]^/;(_'''''')    ",
"    ::::::::::::::::::::::::    ",
"                                ",
"                                ",
"                                ",
"                                ",
"                                ",
"    ++++++++++++++++++++++++    ",
"    @#########$%&*=-;>,''''@    ",
"    @#########$%&*=-;>,''''@    ",
"    )#######!~{]^/;(_'''''')    ",
"    ::::::::::::::::::::::::    ",
"                                ",
"                                ",
"                                ",
"                                "};
