/* XPM */
static const char * recorder_xpm[] = {
"32 32 101 2",
"  	g None",
". 	g #000000",
"+ 	g #010101",
"@ 	g #606060",
"# 	g #050505",
"$ 	g #040404",
"% 	g #9E9E9E",
"& 	g #5D5D5D",
"* 	g #0F0F0F",
"= 	g #090909",
"- 	g #B3B3B3",
"; 	g #171717",
"> 	g #0D0D0D",
", 	g #0C0C0C",
"' 	g #C6C6C6",
") 	g #DCDCDC",
"! 	g #C2C2C2",
"~ 	g #191919",
"{ 	g #0B0B0B",
"] 	g #919191",
"^ 	g #8E8E8E",
"/ 	g #8A8A8A",
"( 	g #6B6B6B",
"_ 	g #515151",
": 	g #393939",
"< 	g #0E0E0E",
"[ 	g #C7C7C7",
"} 	g #EFEFEF",
"| 	g #C1C1C1",
"1 	g #151515",
"2 	g #8B8B8B",
"3 	g #CECECE",
"4 	g #E3E3E3",
"5 	g #E1E1E1",
"6 	g #AFAFAF",
"7 	g #131313",
"8 	g #B6B6B6",
"9 	g #DADADA",
"0 	g #888888",
"a 	g #CBCBCB",
"b 	g #B4B4B4",
"c 	g #727272",
"d 	g #252525",
"e 	g #ACACAC",
"f 	g #C3C3C3",
"g 	g #111111",
"h 	g #8D8D8D",
"i 	g #FFFFFF",
"j 	g #989898",
"k 	g #A4A4A4",
"l 	g #EEEEEE",
"m 	g #A9A9A9",
"n 	g #AAAAAA",
"o 	g #909090",
"p 	g #A5A5A5",
"q 	g #9D9D9D",
"r 	g #E0E0E0",
"s 	g #949494",
"t 	g #959595",
"u 	g #D3D3D3",
"v 	g #878787",
"w 	g #858585",
"x 	g #C5C5C5",
"y 	g #868686",
"z 	g #B7B7B7",
"A 	g #838383",
"B 	g #7E7E7E",
"C 	g #A8A8A8",
"D 	g #585858",
"E 	g #313131",
"F 	g #777777",
"G 	g #9B9B9B",
"H 	g #747474",
"I 	g #6F6F6F",
"J 	g #686868",
"K 	g #7F7F7F",
"L 	g #787878",
"M 	g #BBBBBB",
"N 	g #222222",
"O 	g #5B5B5B",
"P 	g #707070",
"Q 	g #BEBEBE",
"R 	g #101010",
"S 	g #E6E6E6",
"T 	g #A0A0A0",
"U 	g #565656",
"V 	g #6D6D6D",
"W 	g #BCBCBC",
"X 	g #545454",
"Y 	g #666666",
"Z 	g #616161",
"` 	g #7C7C7C",
" .	g #494949",
"..	g #4E4E4E",
"+.	g #5F5F5F",
"@.	g #242424",
"#.	g #4D4D4D",
"$.	g #454545",
"%.	g #424242",
"&.	g #4C4C4C",
"*.	g #373737",
"                                                                ",
"                                                                ",
"                                                                ",
"          . .                                                   ",
"          + @ #                                                 ",
"          $ % & *                                               ",
"          = - % & ;                   + $ = > > = $ +           ",
"          , ' ) ! & ~                 { ] ^ / ( _ : $           ",
"          < [ } ) | & ~               1 2 3 4 5 6 _ =           ",
"          7 8 } [ 9 | & ~             ; 0 } a b c _ ,           ",
"          d e } f ! 9 | & ~           g h i 5 j c _ <           ",
"          . k l 8 m n ) | & ~         < o i 5 p c _ <           ",
"          . q r m ^ ^ m ) | & ~       < s i 5 - c _ <           ",
"          . t u ^ v w ^ m ) | & ~     < o i 5 p c _ <           ",
"          . ^ x v w w w ^ m ) | & 7   < s i 5 - c _ <           ",
"          . y z w A A w v j b ) | & = < s i 5 - c _ <           ",
"          . B C A A A v ] s p m D E = < s i 5 - c _ <           ",
"          . F G A w v ] j p H D E 7   < s i 5 - c _ <           ",
"          . I h ] ] ] j p H D E ~     < s i 5 - c _ <           ",
"          . J K s ] G - H D E ~       < s i 5 - c _ <           ",
"          E @ L j q M H _ E ~         < s i 5 - c _ <           ",
"          N O P G Q H _ E ~           R I S ) T c _ .           ",
"          7 U V W c _ E ~             N ( ) W j c _ .           ",
"          < X Y ( _ E ~               + Z c ` c _  ..           ",
"          , ..+._ E ~                 . @._ _ _ #.$..           ",
"          = %.&.E ;                   . . . . . . . .           ",
"          $ *.E *                                               ",
"          + E #                                                 ",
"          . .                                                   ",
"                                                                ",
"                                                                ",
"                                                                "};
