/* XPM */
static char * remove_xpm[] = {
"32 32 254 2",
"  	c None",
". 	c #B85E5E",
"+ 	c #9B1D1D",
"@ 	c #8D0000",
"# 	c #8E0000",
"$ 	c #8F0000",
"% 	c #910000",
"& 	c #930000",
"* 	c #960000",
"= 	c #990000",
"- 	c #9C0000",
"; 	c #A00000",
"> 	c #A40000",
", 	c #A80000",
"' 	c #AC0000",
") 	c #B10000",
"! 	c #B50000",
"~ 	c #BB0000",
"{ 	c #C00000",
"] 	c #C50000",
"^ 	c #CB0000",
"/ 	c #D10000",
"( 	c #D70000",
"_ 	c #DF1C1C",
": 	c #EB5C5C",
"< 	c #BF6E6E",
"[ 	c #C07373",
"} 	c #9D2D2D",
"| 	c #830000",
"1 	c #840000",
"2 	c #850000",
"3 	c #860000",
"4 	c #880000",
"5 	c #8A0000",
"6 	c #900000",
"7 	c #970000",
"8 	c #9B0000",
"9 	c #A50000",
"0 	c #AA0000",
"a 	c #AF0000",
"b 	c #B40000",
"c 	c #BA0000",
"d 	c #C10000",
"e 	c #C70000",
"f 	c #CD0000",
"g 	c #D30000",
"h 	c #E02C2C",
"i 	c #EB7070",
"j 	c #F06C6C",
"k 	c #9E2323",
"l 	c #AE4D4D",
"m 	c #CA8F8F",
"n 	c #CC8484",
"o 	c #BF5E5E",
"p 	c #C26262",
"q 	c #C36262",
"r 	c #C46262",
"s 	c #C56161",
"t 	c #C76161",
"u 	c #C86161",
"v 	c #CA6161",
"w 	c #CC6161",
"x 	c #CD6161",
"y 	c #CF6161",
"z 	c #D16161",
"A 	c #D36161",
"B 	c #D46161",
"C 	c #D66161",
"D 	c #D76161",
"E 	c #D86161",
"F 	c #D96161",
"G 	c #DA6060",
"H 	c #DA5D5D",
"I 	c #DD5F5F",
"J 	c #E36D6D",
"K 	c #DF8383",
"L 	c #E98484",
"M 	c #EC4D4D",
"N 	c #ED2222",
"O 	c #8F0505",
"P 	c #931E1E",
"Q 	c #C97F7F",
"R 	c #D25B5B",
"S 	c #D04E4E",
"T 	c #D45151",
"U 	c #D75050",
"V 	c #DA5050",
"W 	c #DD5050",
"X 	c #E05050",
"Y 	c #E25050",
"Z 	c #E45050",
"` 	c #E65050",
" .	c #E75050",
"..	c #E85050",
"+.	c #E95050",
"@.	c #E95151",
"#.	c #E85151",
"$.	c #E54F4F",
"%.	c #E24D4D",
"&.	c #E04C4C",
"*.	c #DE5353",
"=.	c #DE6161",
"-.	c #D46363",
";.	c #B43E3E",
">.	c #8C1414",
",.	c #CD5F5F",
"'.	c #E92222",
").	c #E80404",
"!.	c #890000",
"~.	c #7E0000",
"{.	c #B65555",
"].	c #C84848",
"^.	c #C74343",
"/.	c #CB4444",
"(.	c #CF4444",
"_.	c #D24444",
":.	c #D64444",
"<.	c #D94444",
"[.	c #DC4444",
"}.	c #DE4444",
"|.	c #E04444",
"1.	c #E24444",
"2.	c #E44343",
"3.	c #E54242",
"4.	c #E54141",
"5.	c #E44A4A",
"6.	c #E45555",
"7.	c #E05D5D",
"8.	c #D55454",
"9.	c #BE3131",
"0.	c #A30808",
"a.	c #850101",
"b.	c #C03838",
"c.	c #E50101",
"d.	c #E60000",
"e.	c #870000",
"f.	c #7C0000",
"g.	c #B35353",
"h.	c #C84949",
"i.	c #C74444",
"j.	c #CF4343",
"k.	c #D24343",
"l.	c #D64242",
"m.	c #D94242",
"n.	c #DC4242",
"o.	c #DF4242",
"p.	c #E24242",
"q.	c #E44444",
"r.	c #E64646",
"s.	c #E84A4A",
"t.	c #E85454",
"u.	c #E55555",
"v.	c #DF4B4B",
"w.	c #D43434",
"x.	c #C51515",
"y.	c #AB0000",
"z.	c #A30000",
"A.	c #9B0101",
"B.	c #880101",
"C.	c #BE3636",
"D.	c #E30202",
"E.	c #E40000",
"F.	c #790000",
"G.	c #A14242",
"H.	c #AC2D2D",
"I.	c #B22626",
"J.	c #BE2E2E",
"K.	c #C63333",
"L.	c #CE3737",
"M.	c #D43939",
"N.	c #D93B3B",
"O.	c #DD3C3C",
"P.	c #E13D3D",
"Q.	c #E43E3E",
"R.	c #E63D3D",
"S.	c #E73939",
"T.	c #E63333",
"U.	c #E42727",
"V.	c #E01818",
"W.	c #DA0808",
"X.	c #CC0000",
"Y.	c #BC0101",
"Z.	c #B10303",
"`.	c #A40202",
" +	c #880A0A",
".+	c #C33535",
"++	c #E00000",
"@+	c #E20000",
"#+	c #7B1111",
"$+	c #8F2F2F",
"%+	c #922B2B",
"&+	c #962D2D",
"*+	c #9B2E2E",
"=+	c #A03030",
"-+	c #A53131",
";+	c #A93232",
">+	c #AD3232",
",+	c #B13131",
"'+	c #B52F2F",
")+	c #B82C2C",
"!+	c #BC2929",
"~+	c #BF2828",
"{+	c #C22727",
"]+	c #C42929",
"^+	c #C62C2C",
"/+	c #C72F2F",
"(+	c #C73030",
"_+	c #C62F2F",
":+	c #C42E2E",
"<+	c #C22E2E",
"[+	c #C02D2D",
"}+	c #BC2D2D",
"|+	c #C13131",
"1+	c #D51212",
"2+	c #DB0000",
"3+	c #E10000",
"4+	c #6D0000",
"5+	c #680000",
"6+	c #660202",
"7+	c #650101",
"8+	c #670000",
"9+	c #6A0000",
"0+	c #710000",
"a+	c #750101",
"b+	c #7A0101",
"c+	c #7E0202",
"d+	c #840202",
"e+	c #890202",
"f+	c #8E0202",
"g+	c #940101",
"h+	c #A20101",
"i+	c #A90101",
"j+	c #B00101",
"k+	c #B70101",
"l+	c #BF0101",
"m+	c #C70101",
"n+	c #CE0000",
"o+	c #D20000",
"p+	c #DA0000",
"q+	c #660000",
"r+	c #630000",
"s+	c #620000",
"t+	c #650000",
"u+	c #6B0000",
"v+	c #6F0000",
"w+	c #730000",
"x+	c #770000",
"y+	c #810000",
"z+	c #8B0000",
"A+	c #9D0000",
"B+	c #A90000",
"C+	c #BC0000",
"D+	c #C30000",
"E+	c #CA0000",
"                                                                ",
"                                                                ",
"                                                                ",
"                                                                ",
"                                                                ",
"                                                                ",
"                                                                ",
"                                                                ",
"                                                                ",
"                                                                ",
"                                                                ",
"      . + @ @ @ # $ % & * = - ; > , ' ) ! ~ { ] ^ / ( _ :       ",
"    < [ } | 1 1 2 3 4 5 @ 6 & 7 8 ; 9 0 a b c d e f g h i j     ",
"  k l m n o p q r s t u v w x y z A B C D E F G H I J K L M N   ",
"  O P Q R S T U V W X Y Z `  ...+.@.#. .$.%.&.*.=.-.;.>.,.'.).  ",
"  !.~.{.].^./.(._.:.<.[.}.|.1.2.2.3.4.2.5.6.7.8.9.0.& a.b.c.d.  ",
"  e.f.g.h.i./.j.k.l.m.n.o.p.q.r.s...t.u.v.w.x.! y.z.A.B.C.D.E.  ",
"  2 F.G.H.I.J.K.L.M.N.O.P.Q.R.S.T.U.V.W.g X.] Y.Z.`.7  +.+++@+  ",
"  | F.#+$+%+&+*+=+-+;+>+,+'+)+!+~+{+]+^+/+(+_+:+<+[+}+|+1+2+3+  ",
"    F.4+5+6+7+7+7+8+9+4+0+a+b+c+d+e+f+g+A.h+i+j+k+l+m+n+o+p+    ",
"      4+q+r+s+r+t+5+u+v+w+x+f.y+3 z+% 7 A+z.B+a ! C+D+E+o+      ",
"                                                                ",
"                                                                ",
"                                                                ",
"                                                                ",
"                                                                ",
"                                                                ",
"                                                                ",
"                                                                ",
"                                                                ",
"                                                                ",
"                                                                "};
