/* XPM */
static const char * specialchars_small_xpm[] = {
"156 21 2 1",
" 	c None",
".	c #000000",
" ..........                          ..........                                      ..........  ..........              ..........                         ",
". ........ ..                      .. ........  .           .                       . ........ .. ........ .            . ........  .           .          .",
".. ...... ....                    .... ......   ..          ..                      .. ...... .... ...... ..            .. ......   ..          ..        ..",
"...      ......                  ......         ...         ...                     ...      ......      ...            ...         ...         ...      ...",
"...      ......                  ......         ...         ...                     ...      ......      ...            ...         ...         ...      ...",
"...      ......                  ......         ...         ...                     ...      ......      ...            ...         ...         ...      ...",
"...      ......                  ......         ...         ...                     ...      ......      ...            ...         ...         ...      ...",
"...      ......                  ......         ...         ...                     ...      ......      ...            ...         ...         ...      ...",
"...      ......                  ......         ...         ...                     ...      ......      ...            ...         ...         ...      ...",
".. ...... .... ......      ...... .... ......   .. ......   ..             ......   ..        .... ...... ..   ......   .. ......   .. ......   .. ...... ..",
"  ........    ........    ........    ........    ........                ........                ........    ........    ........    ........    ........  ",
".. ...... .... ...... .... ...... .... ......   .. ...... ....          .. ...... ....        .... ......   .. ......      ...... .... ......      ...... ..",
"...      ......      ......      ......         ...      ......         ...      ......      ......         ...                  ......                  ...",
"...      ......      ......      ......         ...      ......         ...      ......      ......         ...                  ......                  ...",
"...      ......      ......      ......         ...      ......         ...      ......      ......         ...                  ......                  ...",
"...      ......      ......      ......         ...      ......         ...      ......      ......         ...                  ......                  ...",
"...      ......      ......      ......         ...      ......         ...      ......      ......         ...                  ......                  ...",
"...      ......      ......      ......         ...      ......         ...      ......      ......         ...                  ......                  ...",
"..        .... ...... .... ...... .... ......   ..        .... ......   ..        .... ...... ....          ..             ...... ....                    ..",
".          .. ........ .. ........ .. ........  .          .. ........  .          .. ........ ..           .             ........ ..                      .",
"             ..........  ..........  ..........              ..........              ..........                          ..........                         "};
