/* XPM */
static const char * stop_xpm[] = {
"22 22 129 2",
"  	c None",
". 	c #1E0A0A",
"+ 	c #200B0B",
"@ 	c #341111",
"# 	c #DD8B8B",
"$ 	c #F8E8E8",
"% 	c #CFBFBF",
"& 	c #89605F",
"* 	c #000000",
"= 	c #2E0F0F",
"- 	c #FFFFFF",
"; 	c #E79D95",
"> 	c #E0968F",
", 	c #DC928B",
"' 	c #D88787",
") 	c #D17E7E",
"! 	c #B4594F",
"~ 	c #66342C",
"{ 	c #E99F97",
"] 	c #DC7D77",
"^ 	c #D67A72",
"/ 	c #D2736A",
"( 	c #D1716A",
"_ 	c #D1706A",
": 	c #CC5F59",
"< 	c #CD6060",
"[ 	c #B51515",
"} 	c #931D1D",
"| 	c #5E2A21",
"1 	c #DD9089",
"2 	c #E0807C",
"3 	c #DF817D",
"4 	c #DC827C",
"5 	c #D97F79",
"6 	c #D77C74",
"7 	c #D5786F",
"8 	c #CF6A62",
"9 	c #CC5D5D",
"0 	c #C54D44",
"a 	c #B30F0F",
"b 	c #921C1C",
"c 	c #E07F79",
"d 	c #E1847F",
"e 	c #E7928C",
"f 	c #E08B86",
"g 	c #DD8782",
"h 	c #DA827C",
"i 	c #D4766E",
"j 	c #D1746B",
"k 	c #C23728",
"l 	c #B41212",
"m 	c #911A1A",
"n 	c #E1837E",
"o 	c #E0817D",
"p 	c #E69490",
"q 	c #E08D88",
"r 	c #DD8884",
"s 	c #C7564A",
"t 	c #BD1813",
"u 	c #A1110E",
"v 	c #200A0A",
"w 	c #D98884",
"x 	c #DE847E",
"y 	c #E3938E",
"z 	c #FDF9F9",
"A 	c #D07267",
"B 	c #CA5B53",
"C 	c #BD1914",
"D 	c #A1120F",
"E 	c #D57E77",
"F 	c #D9807A",
"G 	c #D17469",
"H 	c #CB6259",
"I 	c #CB5F57",
"J 	c #DD938C",
"K 	c #D47B74",
"L 	c #D77B74",
"M 	c #D17771",
"N 	c #CF6F65",
"O 	c #CC675D",
"P 	c #C65148",
"Q 	c #D7837B",
"R 	c #D07871",
"S 	c #D37066",
"T 	c #CF6F66",
"U 	c #C95A52",
"V 	c #C83939",
"W 	c #1F0A0A",
"X 	c #CC716E",
"Y 	c #C97068",
"Z 	c #CC5E56",
"` 	c #D17872",
" .	c #C94F42",
"..	c #C72E2E",
"+.	c #BC1611",
"@.	c #A1100D",
"#.	c #E0D0D0",
"$.	c #CA6865",
"%.	c #C9726A",
"&.	c #CD665F",
"*.	c #CD695E",
"=.	c #CB6258",
"-.	c #C03223",
";.	c #BC140F",
">.	c #A00E0B",
",.	c #C77D7D",
"'.	c #B04E44",
").	c #CC6262",
"!.	c #CF6459",
"~.	c #CF6F67",
"{.	c #D07169",
"].	c #CD6962",
"^.	c #CD5E52",
"/.	c #C84A3D",
"(.	c #BC1510",
"_.	c #901616",
":.	c #C95656",
"<.	c #CD6155",
"[.	c #CF6359",
"}.	c #CF685D",
"|.	c #CD6055",
"1.	c #CC4848",
"2.	c #C44032",
"3.	c #C21A1A",
"4.	c #C03122",
"5.	c #901717",
"6.	c #B51717",
"7.	c #C73C38",
"8.	c #C63935",
"                                            ",
"            . + + + + + + + +               ",
"          @ # $ $ $ $ $ $ % & *             ",
"        = # - ; ; > , , ' ) ! ~ *           ",
"      = # - { ] ^ / ( _ : < [ } | *         ",
"    @ # - 1 2 3 4 5 6 7 8 9 0 a b | *       ",
"  . # - { c d - e f g h i - j k l m | *     ",
"  + $ ; n o - - - p q r - - - s t u | *     ",
"  v $ ; w x e - - - y - z - A B C D | *     ",
"  + $ > E F f p - - - - - G H I C D | *     ",
"  v $ J K L g q y - - - M N O P C D | *     ",
"  v $ Q R S h r - - - - - T U V C u | *     ",
"  W $ X Y Z i - z - ` - - -  ...+.@.| *     ",
"  + #.$.%.&.- - - G *.=.- - - -.;.>.| *     ",
"  v ,.'.).!.&.- ~.{.].^./.- C (.@._.| *     ",
"    * | } :.<.[.}.|.1.2.3.4.(.@.5.| *       ",
"      * | b 6.7.8.8.8.t +.;.@.5.| *         ",
"        * | m u D D D u @.>._.| *           ",
"          * | | | | | | | | | *             ",
"            * * * * * * * * *               ",
"                                            ",
"                                            "};
